<svg xmlns="http://www.w3.org/2000/svg" id="diagram" width="260" height="260">
  <defs>
    <clipPath id="clipPath-0">
      <rect x="5.0" y="5.0" width="250.0" height="250.0"/>
    </clipPath>
    <clipPath id="clipPath-1">
      <rect x="5.0" y="5.0" width="250.0" height="250.0"/>
    </clipPath>
  </defs>
  <g id="axes" stroke="gray" stroke-width="2">
    <line id="line-0" x1="5.0" y1="205.0" x2="255.0" y2="205.0" stroke="gray" stroke-width="2"/>
    <line id="line-1" x1="55.0" y1="255.0" x2="55.0" y2="5.0" stroke="gray" stroke-width="2"/>
  </g>
  <g id="g-0">
    <path id="path-0-s=0" d="M 221.7 121.7 L 221.5 117.5 L 220.9 113.3 L 219.9 109.2 L 218.5 105.1 L 216.8 101.1 L 214.6 97.1 L 212.1 93.3 L 209.3 89.5 L 206.1 85.9 L 202.6 82.5 L 198.7 79.2 L 194.6 76.0 L 190.1 73.1 L 185.4 70.3 L 180.4 67.7 L 175.2 65.4 L 169.8 63.2 L 164.2 61.3 L 158.5 59.7 L 152.6 58.3 L 146.5 57.1 L 140.4 56.2 L 134.2 55.5 L 127.9 55.1 L 121.7 55.0 L 115.4 55.1 L 109.1 55.5 L 102.9 56.2 L 96.8 57.1 L 90.8 58.3 L 84.9 59.7 L 79.1 61.3 L 73.5 63.2 L 68.1 65.4 L 62.9 67.7 L 57.9 70.3 L 53.2 73.1 L 48.8 76.0 L 44.6 79.2 L 40.8 82.5 L 37.2 85.9 L 34.0 89.5 L 31.2 93.3 L 28.7 97.1 L 26.6 101.1 L 24.8 105.1 L 23.4 109.2 L 22.5 113.3 L 21.9 117.5 L 21.7 121.7 L 21.9 125.9 L 22.5 130.0 L 23.4 134.2 L 24.8 138.2 L 26.6 142.3 L 28.7 146.2 L 31.2 150.1 L 34.0 153.8 L 37.2 157.4 L 40.8 160.9 L 44.6 164.2 L 48.8 167.3 L 53.2 170.3 L 57.9 173.0 L 62.9 175.6 L 68.1 178.0 L 73.5 180.1 L 79.1 182.0 L 84.9 183.7 L 90.8 185.1 L 96.8 186.2 L 102.9 187.2 L 109.1 187.8 L 115.4 188.2 L 121.7 188.3 L 127.9 188.2 L 134.2 187.8 L 140.4 187.2 L 146.5 186.2 L 152.6 185.1 L 158.5 183.7 L 164.2 182.0 L 169.8 180.1 L 175.2 178.0 L 180.4 175.6 L 185.4 173.0 L 190.1 170.3 L 194.6 167.3 L 198.7 164.2 L 202.6 160.9 L 206.1 157.4 L 209.3 153.8 L 212.1 150.1 L 214.6 146.2 L 216.8 142.3 L 218.5 138.2 L 219.9 134.2 L 220.9 130.0 L 221.5 125.9 L 221.7 121.7" stroke="blue" stroke-width="2" fill="none" clip-path="url(#clipPath-1)"/>
    <path id="path-1-s=1" d="M 196.7 121.7 L 196.5 118.5 L 196.1 115.4 L 195.3 112.3 L 194.3 109.2 L 193.0 106.2 L 191.4 103.3 L 189.5 100.4 L 187.4 97.6 L 185.0 94.9 L 182.3 92.3 L 179.5 89.8 L 176.3 87.4 L 173.0 85.2 L 169.5 83.1 L 165.8 81.2 L 161.9 79.5 L 157.8 77.9 L 153.6 76.4 L 149.3 75.2 L 144.8 74.1 L 140.3 73.2 L 135.7 72.6 L 131.1 72.1 L 126.4 71.8 L 121.7 71.7 L 117.0 71.8 L 112.3 72.1 L 107.6 72.6 L 103.0 73.2 L 98.5 74.1 L 94.1 75.2 L 89.7 76.4 L 85.5 77.9 L 81.5 79.5 L 77.6 81.2 L 73.9 83.1 L 70.3 85.2 L 67.0 87.4 L 63.9 89.8 L 61.0 92.3 L 58.3 94.9 L 55.9 97.6 L 53.8 100.4 L 51.9 103.3 L 50.3 106.2 L 49.0 109.2 L 48.0 112.3 L 47.3 115.4 L 46.8 118.5 L 46.7 121.7 L 46.8 124.8 L 47.3 127.9 L 48.0 131.0 L 49.0 134.1 L 50.3 137.1 L 51.9 140.1 L 53.8 143.0 L 55.9 145.8 L 58.3 148.5 L 61.0 151.1 L 63.9 153.5 L 67.0 155.9 L 70.3 158.1 L 73.9 160.2 L 77.6 162.1 L 81.5 163.9 L 85.5 165.5 L 89.7 166.9 L 94.1 168.2 L 98.5 169.2 L 103.0 170.1 L 107.6 170.8 L 112.3 171.3 L 117.0 171.6 L 121.7 171.7 L 126.4 171.6 L 131.1 171.3 L 135.7 170.8 L 140.3 170.1 L 144.8 169.2 L 149.3 168.2 L 153.6 166.9 L 157.8 165.5 L 161.9 163.9 L 165.8 162.1 L 169.5 160.2 L 173.0 158.1 L 176.3 155.9 L 179.5 153.5 L 182.3 151.1 L 185.0 148.5 L 187.4 145.8 L 189.5 143.0 L 191.4 140.1 L 193.0 137.1 L 194.3 134.1 L 195.3 131.0 L 196.1 127.9 L 196.5 124.8 L 196.7 121.7" stroke="blue" stroke-width="2" fill="none" clip-path="url(#clipPath-1)"/>
    <path id="path-2-s=2" d="M 171.7 121.7 L 171.6 119.6 L 171.3 117.5 L 170.8 115.4 L 170.1 113.4 L 169.2 111.4 L 168.2 109.4 L 166.9 107.5 L 165.5 105.6 L 163.9 103.8 L 162.1 102.1 L 160.2 100.4 L 158.1 98.8 L 155.9 97.4 L 153.5 96.0 L 151.1 94.7 L 148.5 93.5 L 145.8 92.5 L 143.0 91.5 L 140.1 90.7 L 137.1 90.0 L 134.1 89.4 L 131.0 88.9 L 127.9 88.6 L 124.8 88.4 L 121.7 88.3 L 118.5 88.4 L 115.4 88.6 L 112.3 88.9 L 109.2 89.4 L 106.2 90.0 L 103.3 90.7 L 100.4 91.5 L 97.6 92.5 L 94.9 93.5 L 92.3 94.7 L 89.8 96.0 L 87.4 97.4 L 85.2 98.8 L 83.1 100.4 L 81.2 102.1 L 79.5 103.8 L 77.9 105.6 L 76.4 107.5 L 75.2 109.4 L 74.1 111.4 L 73.2 113.4 L 72.6 115.4 L 72.1 117.5 L 71.8 119.6 L 71.7 121.7 L 71.8 123.8 L 72.1 125.8 L 72.6 127.9 L 73.2 130.0 L 74.1 132.0 L 75.2 133.9 L 76.4 135.9 L 77.9 137.7 L 79.5 139.5 L 81.2 141.3 L 83.1 142.9 L 85.2 144.5 L 87.4 146.0 L 89.8 147.4 L 92.3 148.6 L 94.9 149.8 L 97.6 150.9 L 100.4 151.8 L 103.3 152.7 L 106.2 153.4 L 109.2 154.0 L 112.3 154.4 L 115.4 154.7 L 118.5 154.9 L 121.7 155.0 L 124.8 154.9 L 127.9 154.7 L 131.0 154.4 L 134.1 154.0 L 137.1 153.4 L 140.1 152.7 L 143.0 151.8 L 145.8 150.9 L 148.5 149.8 L 151.1 148.6 L 153.5 147.4 L 155.9 146.0 L 158.1 144.5 L 160.2 142.9 L 162.1 141.3 L 163.9 139.5 L 165.5 137.7 L 166.9 135.9 L 168.2 133.9 L 169.2 132.0 L 170.1 130.0 L 170.8 127.9 L 171.3 125.8 L 171.6 123.8 L 171.7 121.7" stroke="blue" stroke-width="2" fill="none" clip-path="url(#clipPath-1)"/>
    <path id="path-3-s=3" d="M 146.7 121.7 L 146.6 120.6 L 146.5 119.6 L 146.2 118.5 L 145.9 117.5 L 145.4 116.5 L 144.9 115.5 L 144.3 114.6 L 143.6 113.6 L 142.8 112.7 L 141.9 111.9 L 140.9 111.0 L 139.9 110.3 L 138.8 109.5 L 137.6 108.8 L 136.4 108.2 L 135.1 107.6 L 133.7 107.1 L 132.3 106.6 L 130.9 106.2 L 129.4 105.8 L 127.9 105.5 L 126.4 105.3 L 124.8 105.1 L 123.2 105.0 L 121.7 105.0 L 120.1 105.0 L 118.5 105.1 L 117.0 105.3 L 115.4 105.5 L 113.9 105.8 L 112.5 106.2 L 111.0 106.6 L 109.6 107.1 L 108.3 107.6 L 107.0 108.2 L 105.7 108.8 L 104.6 109.5 L 103.4 110.3 L 102.4 111.0 L 101.4 111.9 L 100.6 112.7 L 99.8 113.6 L 99.0 114.6 L 98.4 115.5 L 97.9 116.5 L 97.5 117.5 L 97.1 118.5 L 96.9 119.6 L 96.7 120.6 L 96.7 121.7 L 96.7 122.7 L 96.9 123.8 L 97.1 124.8 L 97.5 125.8 L 97.9 126.8 L 98.4 127.8 L 99.0 128.8 L 99.8 129.7 L 100.6 130.6 L 101.4 131.5 L 102.4 132.3 L 103.4 133.1 L 104.6 133.8 L 105.7 134.5 L 107.0 135.2 L 108.3 135.7 L 109.6 136.3 L 111.0 136.7 L 112.5 137.2 L 113.9 137.5 L 115.4 137.8 L 117.0 138.0 L 118.5 138.2 L 120.1 138.3 L 121.7 138.3 L 123.2 138.3 L 124.8 138.2 L 126.4 138.0 L 127.9 137.8 L 129.4 137.5 L 130.9 137.2 L 132.3 136.7 L 133.7 136.3 L 135.1 135.7 L 136.4 135.2 L 137.6 134.5 L 138.8 133.8 L 139.9 133.1 L 140.9 132.3 L 141.9 131.5 L 142.8 130.6 L 143.6 129.7 L 144.3 128.8 L 144.9 127.8 L 145.4 126.8 L 145.9 125.8 L 146.2 124.8 L 146.5 123.8 L 146.6 122.7 L 146.7 121.7" stroke="blue" stroke-width="2" fill="none" clip-path="url(#clipPath-1)"/>
  </g>
  <circle id="circle-0" cx="121.7" cy="121.7" r="2" stroke="none" stroke-width="2" fill="blue"/>
</svg>
