<svg xmlns="http://www.w3.org/2000/svg" id="diagram" width="260" height="260">
  <defs>
    <clipPath id="clipPath-0">
      <rect x="5.0" y="5.0" width="250.0" height="250.0"/>
    </clipPath>
    <clipPath id="clipPath-1">
      <rect x="5.0" y="5.0" width="250.0" height="250.0"/>
    </clipPath>
  </defs>
  <g id="axes" stroke="gray" stroke-width="2">
    <line id="line-0" x1="5.0" y1="130.0" x2="255.0" y2="130.0" stroke="gray" stroke-width="2"/>
    <line id="line-1" x1="130.0" y1="255.0" x2="130.0" y2="5.0" stroke="gray" stroke-width="2"/>
  </g>
  <g id="g-0">
    <path id="path-0-k=-2" d="M 132.1 130.0 L 132.1 129.9 L 132.1 129.7 L 132.1 129.6 L 132.0 129.5 L 132.0 129.3 L 132.0 129.2 L 131.9 129.1 L 131.9 129.0 L 131.8 128.9 L 131.7 128.8 L 131.6 128.7 L 131.5 128.6 L 131.4 128.5 L 131.3 128.4 L 131.2 128.3 L 131.1 128.2 L 131.0 128.1 L 130.9 128.1 L 130.8 128.0 L 130.7 128.0 L 130.5 128.0 L 130.4 127.9 L 130.3 127.9 L 130.1 127.9 L 130.0 127.9 L 129.9 127.9 L 129.7 127.9 L 129.6 127.9 L 129.5 128.0 L 129.3 128.0 L 129.2 128.0 L 129.1 128.1 L 129.0 128.1 L 128.9 128.2 L 128.8 128.3 L 128.7 128.4 L 128.6 128.5 L 128.5 128.6 L 128.4 128.7 L 128.3 128.8 L 128.2 128.9 L 128.1 129.0 L 128.1 129.1 L 128.0 129.2 L 128.0 129.3 L 128.0 129.5 L 127.9 129.6 L 127.9 129.7 L 127.9 129.9 L 127.9 130.0 L 127.9 130.1 L 127.9 130.3 L 127.9 130.4 L 128.0 130.5 L 128.0 130.7 L 128.0 130.8 L 128.1 130.9 L 128.1 131.0 L 128.2 131.1 L 128.3 131.2 L 128.4 131.3 L 128.5 131.4 L 128.6 131.5 L 128.7 131.6 L 128.8 131.7 L 128.9 131.8 L 129.0 131.9 L 129.1 131.9 L 129.2 132.0 L 129.3 132.0 L 129.5 132.0 L 129.6 132.1 L 129.7 132.1 L 129.9 132.1 L 130.0 132.1 L 130.1 132.1 L 130.3 132.1 L 130.4 132.1 L 130.5 132.0 L 130.7 132.0 L 130.8 132.0 L 130.9 131.9 L 131.0 131.9 L 131.1 131.8 L 131.2 131.7 L 131.3 131.6 L 131.4 131.5 L 131.5 131.4 L 131.6 131.3 L 131.7 131.2 L 131.8 131.1 L 131.9 131.0 L 131.9 130.9 L 132.0 130.8 L 132.0 130.7 L 132.0 130.5 L 132.1 130.4 L 132.1 130.3 L 132.1 130.1 Z" stroke="blue" stroke-width="2" fill="none"/>
    <path id="path-1-k=-1" d="M 135.7 130.0 L 135.7 129.6 L 135.7 129.3 L 135.6 128.9 L 135.6 128.6 L 135.5 128.2 L 135.3 127.9 L 135.2 127.6 L 135.0 127.2 L 134.9 126.9 L 134.7 126.6 L 134.4 126.3 L 134.2 126.1 L 133.9 125.8 L 133.7 125.6 L 133.4 125.3 L 133.1 125.1 L 132.8 125.0 L 132.4 124.8 L 132.1 124.7 L 131.8 124.5 L 131.4 124.4 L 131.1 124.4 L 130.7 124.3 L 130.4 124.3 L 130.0 124.3 L 129.6 124.3 L 129.3 124.3 L 128.9 124.4 L 128.6 124.4 L 128.2 124.5 L 127.9 124.7 L 127.6 124.8 L 127.2 125.0 L 126.9 125.1 L 126.6 125.3 L 126.3 125.6 L 126.1 125.8 L 125.8 126.1 L 125.6 126.3 L 125.3 126.6 L 125.1 126.9 L 125.0 127.2 L 124.8 127.6 L 124.7 127.9 L 124.5 128.2 L 124.4 128.6 L 124.4 128.9 L 124.3 129.3 L 124.3 129.6 L 124.3 130.0 L 124.3 130.4 L 124.3 130.7 L 124.4 131.1 L 124.4 131.4 L 124.5 131.8 L 124.7 132.1 L 124.8 132.4 L 125.0 132.8 L 125.1 133.1 L 125.3 133.4 L 125.6 133.7 L 125.8 133.9 L 126.1 134.2 L 126.3 134.4 L 126.6 134.7 L 126.9 134.9 L 127.2 135.0 L 127.6 135.2 L 127.9 135.3 L 128.2 135.5 L 128.6 135.6 L 128.9 135.6 L 129.3 135.7 L 129.6 135.7 L 130.0 135.7 L 130.4 135.7 L 130.7 135.7 L 131.1 135.6 L 131.4 135.6 L 131.8 135.5 L 132.1 135.3 L 132.4 135.2 L 132.8 135.0 L 133.1 134.9 L 133.4 134.7 L 133.7 134.4 L 133.9 134.2 L 134.2 133.9 L 134.4 133.7 L 134.7 133.4 L 134.9 133.1 L 135.0 132.8 L 135.2 132.4 L 135.3 132.1 L 135.5 131.8 L 135.6 131.4 L 135.6 131.1 L 135.7 130.7 L 135.7 130.4 Z" stroke="blue" stroke-width="2" fill="none"/>
    <path id="path-2-k=0" d="M 145.6 130.0 L 145.6 129.0 L 145.5 128.0 L 145.3 127.1 L 145.1 126.1 L 144.9 125.2 L 144.5 124.2 L 144.1 123.3 L 143.7 122.5 L 143.2 121.6 L 142.6 120.8 L 142.0 120.0 L 141.4 119.3 L 140.7 118.6 L 140.0 118.0 L 139.2 117.4 L 138.4 116.8 L 137.5 116.3 L 136.7 115.9 L 135.8 115.5 L 134.8 115.1 L 133.9 114.9 L 132.9 114.7 L 132.0 114.5 L 131.0 114.4 L 130.0 114.4 L 129.0 114.4 L 128.0 114.5 L 127.1 114.7 L 126.1 114.9 L 125.2 115.1 L 124.2 115.5 L 123.3 115.9 L 122.5 116.3 L 121.6 116.8 L 120.8 117.4 L 120.0 118.0 L 119.3 118.6 L 118.6 119.3 L 118.0 120.0 L 117.4 120.8 L 116.8 121.6 L 116.3 122.5 L 115.9 123.3 L 115.5 124.2 L 115.1 125.2 L 114.9 126.1 L 114.7 127.1 L 114.5 128.0 L 114.4 129.0 L 114.4 130.0 L 114.4 131.0 L 114.5 132.0 L 114.7 132.9 L 114.9 133.9 L 115.1 134.8 L 115.5 135.8 L 115.9 136.7 L 116.3 137.5 L 116.8 138.4 L 117.4 139.2 L 118.0 140.0 L 118.6 140.7 L 119.3 141.4 L 120.0 142.0 L 120.8 142.6 L 121.6 143.2 L 122.5 143.7 L 123.3 144.1 L 124.2 144.5 L 125.2 144.9 L 126.1 145.1 L 127.1 145.3 L 128.0 145.5 L 129.0 145.6 L 130.0 145.6 L 131.0 145.6 L 132.0 145.5 L 132.9 145.3 L 133.9 145.1 L 134.8 144.9 L 135.8 144.5 L 136.7 144.1 L 137.5 143.7 L 138.4 143.2 L 139.2 142.6 L 140.0 142.0 L 140.7 141.4 L 141.4 140.7 L 142.0 140.0 L 142.6 139.2 L 143.2 138.4 L 143.7 137.5 L 144.1 136.7 L 144.5 135.8 L 144.9 134.8 L 145.1 133.9 L 145.3 132.9 L 145.5 132.0 L 145.6 131.0 Z" stroke="blue" stroke-width="2" fill="none"/>
    <path id="path-3-k=1" d="M 172.5 130.0 L 172.4 127.3 L 172.1 124.7 L 171.7 122.0 L 171.1 119.4 L 170.4 116.9 L 169.5 114.4 L 168.4 111.9 L 167.2 109.5 L 165.9 107.2 L 164.4 105.0 L 162.7 102.9 L 161.0 100.9 L 159.1 99.0 L 157.1 97.3 L 155.0 95.6 L 152.8 94.1 L 150.5 92.8 L 148.1 91.6 L 145.6 90.5 L 143.1 89.6 L 140.6 88.9 L 138.0 88.3 L 135.3 87.9 L 132.7 87.6 L 130.0 87.5 L 127.3 87.6 L 124.7 87.9 L 122.0 88.3 L 119.4 88.9 L 116.9 89.6 L 114.4 90.5 L 111.9 91.6 L 109.5 92.8 L 107.2 94.1 L 105.0 95.6 L 102.9 97.3 L 100.9 99.0 L 99.0 100.9 L 97.3 102.9 L 95.6 105.0 L 94.1 107.2 L 92.8 109.5 L 91.6 111.9 L 90.5 114.4 L 89.6 116.9 L 88.9 119.4 L 88.3 122.0 L 87.9 124.7 L 87.6 127.3 L 87.5 130.0 L 87.6 132.7 L 87.9 135.3 L 88.3 138.0 L 88.9 140.6 L 89.6 143.1 L 90.5 145.6 L 91.6 148.1 L 92.8 150.5 L 94.1 152.8 L 95.6 155.0 L 97.3 157.1 L 99.0 159.1 L 100.9 161.0 L 102.9 162.7 L 105.0 164.4 L 107.2 165.9 L 109.5 167.2 L 111.9 168.4 L 114.4 169.5 L 116.9 170.4 L 119.4 171.1 L 122.0 171.7 L 124.7 172.1 L 127.3 172.4 L 130.0 172.5 L 132.7 172.4 L 135.3 172.1 L 138.0 171.7 L 140.6 171.1 L 143.1 170.4 L 145.6 169.5 L 148.1 168.4 L 150.5 167.2 L 152.8 165.9 L 155.0 164.4 L 157.1 162.7 L 159.1 161.0 L 161.0 159.1 L 162.7 157.1 L 164.4 155.0 L 165.9 152.8 L 167.2 150.5 L 168.4 148.1 L 169.5 145.6 L 170.4 143.1 L 171.1 140.6 L 171.7 138.0 L 172.1 135.3 L 172.4 132.7 Z" stroke="blue" stroke-width="2" fill="none"/>
    <path id="path-4-k=2" d="M 245.5 130.0 L 245.2 122.8 L 244.5 115.5 L 243.4 108.4 L 241.8 101.3 L 239.8 94.3 L 237.3 87.5 L 234.5 80.8 L 231.2 74.4 L 227.5 68.1 L 223.4 62.1 L 219.0 56.4 L 214.2 51.0 L 209.0 45.8 L 203.6 41.0 L 197.9 36.6 L 191.9 32.5 L 185.6 28.8 L 179.2 25.5 L 172.5 22.7 L 165.7 20.2 L 158.7 18.2 L 151.6 16.6 L 144.5 15.5 L 137.2 14.8 L 130.0 14.5 L 122.8 14.8 L 115.5 15.5 L 108.4 16.6 L 101.3 18.2 L 94.3 20.2 L 87.5 22.7 L 80.8 25.5 L 74.4 28.8 L 68.1 32.5 L 62.1 36.6 L 56.4 41.0 L 51.0 45.8 L 45.8 51.0 L 41.0 56.4 L 36.6 62.1 L 32.5 68.1 L 28.8 74.4 L 25.5 80.8 L 22.7 87.5 L 20.2 94.3 L 18.2 101.3 L 16.6 108.4 L 15.5 115.5 L 14.8 122.8 L 14.5 130.0 L 14.8 137.2 L 15.5 144.5 L 16.6 151.6 L 18.2 158.7 L 20.2 165.7 L 22.7 172.5 L 25.5 179.2 L 28.8 185.6 L 32.5 191.9 L 36.6 197.9 L 41.0 203.6 L 45.8 209.0 L 51.0 214.2 L 56.4 219.0 L 62.1 223.4 L 68.1 227.5 L 74.4 231.2 L 80.8 234.5 L 87.5 237.3 L 94.3 239.8 L 101.3 241.8 L 108.4 243.4 L 115.5 244.5 L 122.8 245.2 L 130.0 245.5 L 137.2 245.2 L 144.5 244.5 L 151.6 243.4 L 158.7 241.8 L 165.7 239.8 L 172.5 237.3 L 179.2 234.5 L 185.6 231.2 L 191.9 227.5 L 197.9 223.4 L 203.6 219.0 L 209.0 214.2 L 214.2 209.0 L 219.0 203.6 L 223.4 197.9 L 227.5 191.9 L 231.2 185.6 L 234.5 179.2 L 237.3 172.5 L 239.8 165.7 L 241.8 158.7 L 243.4 151.6 L 244.5 144.5 L 245.2 137.2 Z" stroke="blue" stroke-width="2" fill="none"/>
  </g>
  <g id="g-1">
    <line id="line-2-angle=0" x1="128.2" y1="128.9" x2="30.0" y2="72.3" stroke="red" stroke-width="2" stroke-dasharray="9 9" fill="none"/>
    <line id="line-3-angle=1" x1="131.1" y1="128.2" x2="187.7" y2="30.0" stroke="red" stroke-width="2" stroke-dasharray="9 9" fill="none"/>
    <line id="line-4-angle=2" x1="132.1" y1="130.0" x2="245.5" y2="130.0" stroke="red" stroke-width="2" stroke-dasharray="9 9" fill="none"/>
    <line id="line-5-angle=3" x1="131.1" y1="131.8" x2="187.7" y2="230.0" stroke="red" stroke-width="2" stroke-dasharray="9 9" fill="none"/>
    <line id="line-6-angle=4" x1="128.2" y1="131.1" x2="30.0" y2="187.7" stroke="red" stroke-width="2" stroke-dasharray="9 9" fill="none"/>
  </g>
</svg>
