<svg xmlns="http://www.w3.org/2000/svg" id="diagram" width="260" height="260">
  <defs>
    <clipPath id="clipPath-0">
      <rect x="5.0" y="5.0" width="250.0" height="250.0"/>
    </clipPath>
    <clipPath id="clipPath-1">
      <rect x="5.0" y="5.0" width="250.0" height="250.0"/>
    </clipPath>
  </defs>
  <g id="axes" stroke="gray" stroke-width="2">
    <line id="line-0" x1="5.0" y1="130.0" x2="255.0" y2="130.0" stroke="gray" stroke-width="2"/>
    <line id="line-1" x1="130.0" y1="255.0" x2="130.0" y2="5.0" stroke="gray" stroke-width="2"/>
  </g>
  <g id="g-0">
    <path id="path-0-s=0" d="M 165.7 130.0 L 165.7 129.6 L 165.7 129.1 L 165.7 128.7 L 165.7 128.2 L 165.6 127.8 L 165.6 127.3 L 165.6 126.9 L 165.5 126.4 L 165.5 126.0 L 165.4 125.5 L 165.4 125.1 L 165.3 124.6 L 165.2 124.2 L 165.2 123.7 L 165.1 123.3 L 165.0 122.9 L 164.9 122.4 L 164.8 122.0 L 164.7 121.6 L 164.6 121.1 L 164.5 120.7 L 164.4 120.3 L 164.2 119.8 L 164.1 119.4 L 164.0 119.0 L 163.8 118.5 L 163.7 118.1 L 163.5 117.7 L 163.4 117.3 L 163.2 116.9 L 163.0 116.4 L 162.9 116.0 L 162.7 115.6 L 162.5 115.2 L 162.3 114.8 L 162.1 114.4 L 161.9 114.0 L 161.7 113.6 L 161.5 113.2 L 161.3 112.8 L 161.1 112.4 L 160.9 112.0 L 160.6 111.6 L 160.4 111.2 L 160.2 110.9 L 159.9 110.5 L 159.7 110.1 L 159.4 109.7 L 159.2 109.4 L 158.9 109.0 L 158.6 108.6 L 158.4 108.3 L 158.1 107.9 L 157.8 107.6 L 157.5 107.2 L 157.2 106.9 L 156.9 106.6 L 156.6 106.2 L 156.3 105.9 L 156.0 105.6 L 155.7 105.2 L 155.4 104.9 L 155.1 104.6 L 154.8 104.3 L 154.4 104.0 L 154.1 103.7 L 153.8 103.4 L 153.4 103.1 L 153.1 102.8 L 152.8 102.5 L 152.4 102.2 L 152.1 101.9 L 151.7 101.6 L 151.4 101.4 L 151.0 101.1 L 150.6 100.8 L 150.3 100.6 L 149.9 100.3 L 149.5 100.1 L 149.1 99.8 L 148.8 99.6 L 148.4 99.4 L 148.0 99.1 L 147.6 98.9 L 147.2 98.7 L 146.8 98.5 L 146.4 98.3 L 146.0 98.1 L 145.6 97.9 L 145.2 97.7 L 144.8 97.5 L 144.4 97.3 L 144.0 97.1 L 143.6 97.0 L 143.1 96.8 L 142.7 96.6 L 142.3 96.5 L 141.9 96.3 L 141.5 96.2 L 141.0 96.0 L 140.6 95.9 L 140.2 95.8 L 139.7 95.6 L 139.3 95.5 L 138.9 95.4 L 138.4 95.3 L 138.0 95.2 L 137.6 95.1 L 137.1 95.0 L 136.7 94.9 L 136.3 94.8 L 135.8 94.8 L 135.4 94.7 L 134.9 94.6 L 134.5 94.6 L 134.0 94.5 L 133.6 94.5 L 133.1 94.4 L 132.7 94.4 L 132.2 94.4 L 131.8 94.3 L 131.3 94.3 L 130.9 94.3 L 130.4 94.3 L 130.0 94.3 L 129.6 94.3 L 129.1 94.3 L 128.7 94.3 L 128.2 94.3 L 127.8 94.4 L 127.3 94.4 L 126.9 94.4 L 126.4 94.5 L 126.0 94.5 L 125.5 94.6 L 125.1 94.6 L 124.6 94.7 L 124.2 94.8 L 123.7 94.8 L 123.3 94.9 L 122.9 95.0 L 122.4 95.1 L 122.0 95.2 L 121.6 95.3 L 121.1 95.4 L 120.7 95.5 L 120.3 95.6 L 119.8 95.8 L 119.4 95.9 L 119.0 96.0 L 118.5 96.2 L 118.1 96.3 L 117.7 96.5 L 117.3 96.6 L 116.9 96.8 L 116.4 97.0 L 116.0 97.1 L 115.6 97.3 L 115.2 97.5 L 114.8 97.7 L 114.4 97.9 L 114.0 98.1 L 113.6 98.3 L 113.2 98.5 L 112.8 98.7 L 112.4 98.9 L 112.0 99.1 L 111.6 99.4 L 111.2 99.6 L 110.9 99.8 L 110.5 100.1 L 110.1 100.3 L 109.7 100.6 L 109.4 100.8 L 109.0 101.1 L 108.6 101.4 L 108.3 101.6 L 107.9 101.9 L 107.6 102.2 L 107.2 102.5 L 106.9 102.8 L 106.6 103.1 L 106.2 103.4 L 105.9 103.7 L 105.6 104.0 L 105.2 104.3 L 104.9 104.6 L 104.6 104.9 L 104.3 105.2 L 104.0 105.6 L 103.7 105.9 L 103.4 106.2 L 103.1 106.6 L 102.8 106.9 L 102.5 107.2 L 102.2 107.6 L 101.9 107.9 L 101.6 108.3 L 101.4 108.6 L 101.1 109.0 L 100.8 109.4 L 100.6 109.7 L 100.3 110.1 L 100.1 110.5 L 99.8 110.9 L 99.6 111.2 L 99.4 111.6 L 99.1 112.0 L 98.9 112.4 L 98.7 112.8 L 98.5 113.2 L 98.3 113.6 L 98.1 114.0 L 97.9 114.4 L 97.7 114.8 L 97.5 115.2 L 97.3 115.6 L 97.1 116.0 L 97.0 116.4 L 96.8 116.9 L 96.6 117.3 L 96.5 117.7 L 96.3 118.1 L 96.2 118.5 L 96.0 119.0 L 95.9 119.4 L 95.8 119.8 L 95.6 120.3 L 95.5 120.7 L 95.4 121.1 L 95.3 121.6 L 95.2 122.0 L 95.1 122.4 L 95.0 122.9 L 94.9 123.3 L 94.8 123.7 L 94.8 124.2 L 94.7 124.6 L 94.6 125.1 L 94.6 125.5 L 94.5 126.0 L 94.5 126.4 L 94.4 126.9 L 94.4 127.3 L 94.4 127.8 L 94.3 128.2 L 94.3 128.7 L 94.3 129.1 L 94.3 129.6 L 94.3 130.0 L 94.3 130.4 L 94.3 130.9 L 94.3 131.3 L 94.3 131.8 L 94.4 132.2 L 94.4 132.7 L 94.4 133.1 L 94.5 133.6 L 94.5 134.0 L 94.6 134.5 L 94.6 134.9 L 94.7 135.4 L 94.8 135.8 L 94.8 136.3 L 94.9 136.7 L 95.0 137.1 L 95.1 137.6 L 95.2 138.0 L 95.3 138.4 L 95.4 138.9 L 95.5 139.3 L 95.6 139.7 L 95.8 140.2 L 95.9 140.6 L 96.0 141.0 L 96.2 141.5 L 96.3 141.9 L 96.5 142.3 L 96.6 142.7 L 96.8 143.1 L 97.0 143.6 L 97.1 144.0 L 97.3 144.4 L 97.5 144.8 L 97.7 145.2 L 97.9 145.6 L 98.1 146.0 L 98.3 146.4 L 98.5 146.8 L 98.7 147.2 L 98.9 147.6 L 99.1 148.0 L 99.4 148.4 L 99.6 148.8 L 99.8 149.1 L 100.1 149.5 L 100.3 149.9 L 100.6 150.3 L 100.8 150.6 L 101.1 151.0 L 101.4 151.4 L 101.6 151.7 L 101.9 152.1 L 102.2 152.4 L 102.5 152.8 L 102.8 153.1 L 103.1 153.4 L 103.4 153.8 L 103.7 154.1 L 104.0 154.4 L 104.3 154.8 L 104.6 155.1 L 104.9 155.4 L 105.2 155.7 L 105.6 156.0 L 105.9 156.3 L 106.2 156.6 L 106.6 156.9 L 106.9 157.2 L 107.2 157.5 L 107.6 157.8 L 107.9 158.1 L 108.3 158.4 L 108.6 158.6 L 109.0 158.9 L 109.4 159.2 L 109.7 159.4 L 110.1 159.7 L 110.5 159.9 L 110.9 160.2 L 111.2 160.4 L 111.6 160.6 L 112.0 160.9 L 112.4 161.1 L 112.8 161.3 L 113.2 161.5 L 113.6 161.7 L 114.0 161.9 L 114.4 162.1 L 114.8 162.3 L 115.2 162.5 L 115.6 162.7 L 116.0 162.9 L 116.4 163.0 L 116.9 163.2 L 117.3 163.4 L 117.7 163.5 L 118.1 163.7 L 118.5 163.8 L 119.0 164.0 L 119.4 164.1 L 119.8 164.2 L 120.3 164.4 L 120.7 164.5 L 121.1 164.6 L 121.6 164.7 L 122.0 164.8 L 122.4 164.9 L 122.9 165.0 L 123.3 165.1 L 123.7 165.2 L 124.2 165.2 L 124.6 165.3 L 125.1 165.4 L 125.5 165.4 L 126.0 165.5 L 126.4 165.5 L 126.9 165.6 L 127.3 165.6 L 127.8 165.6 L 128.2 165.7 L 128.7 165.7 L 129.1 165.7 L 129.6 165.7 L 130.0 165.7 L 130.4 165.7 L 130.9 165.7 L 131.3 165.7 L 131.8 165.7 L 132.2 165.6 L 132.7 165.6 L 133.1 165.6 L 133.6 165.5 L 134.0 165.5 L 134.5 165.4 L 134.9 165.4 L 135.4 165.3 L 135.8 165.2 L 136.3 165.2 L 136.7 165.1 L 137.1 165.0 L 137.6 164.9 L 138.0 164.8 L 138.4 164.7 L 138.9 164.6 L 139.3 164.5 L 139.7 164.4 L 140.2 164.2 L 140.6 164.1 L 141.0 164.0 L 141.5 163.8 L 141.9 163.7 L 142.3 163.5 L 142.7 163.4 L 143.1 163.2 L 143.6 163.0 L 144.0 162.9 L 144.4 162.7 L 144.8 162.5 L 145.2 162.3 L 145.6 162.1 L 146.0 161.9 L 146.4 161.7 L 146.8 161.5 L 147.2 161.3 L 147.6 161.1 L 148.0 160.9 L 148.4 160.6 L 148.8 160.4 L 149.1 160.2 L 149.5 159.9 L 149.9 159.7 L 150.3 159.4 L 150.6 159.2 L 151.0 158.9 L 151.4 158.6 L 151.7 158.4 L 152.1 158.1 L 152.4 157.8 L 152.8 157.5 L 153.1 157.2 L 153.4 156.9 L 153.8 156.6 L 154.1 156.3 L 154.4 156.0 L 154.8 155.7 L 155.1 155.4 L 155.4 155.1 L 155.7 154.8 L 156.0 154.4 L 156.3 154.1 L 156.6 153.8 L 156.9 153.4 L 157.2 153.1 L 157.5 152.8 L 157.8 152.4 L 158.1 152.1 L 158.4 151.7 L 158.6 151.4 L 158.9 151.0 L 159.2 150.6 L 159.4 150.3 L 159.7 149.9 L 159.9 149.5 L 160.2 149.1 L 160.4 148.8 L 160.6 148.4 L 160.9 148.0 L 161.1 147.6 L 161.3 147.2 L 161.5 146.8 L 161.7 146.4 L 161.9 146.0 L 162.1 145.6 L 162.3 145.2 L 162.5 144.8 L 162.7 144.4 L 162.9 144.0 L 163.0 143.6 L 163.2 143.1 L 163.4 142.7 L 163.5 142.3 L 163.7 141.9 L 163.8 141.5 L 164.0 141.0 L 164.1 140.6 L 164.2 140.2 L 164.4 139.7 L 164.5 139.3 L 164.6 138.9 L 164.7 138.4 L 164.8 138.0 L 164.9 137.6 L 165.0 137.1 L 165.1 136.7 L 165.2 136.3 L 165.2 135.8 L 165.3 135.4 L 165.4 134.9 L 165.4 134.5 L 165.5 134.0 L 165.5 133.6 L 165.6 133.1 L 165.6 132.7 L 165.6 132.2 L 165.7 131.8 L 165.7 131.3 L 165.7 130.9 L 165.7 130.4 L 165.7 130.0" stroke="blue" stroke-width="2" fill="none" clip-path="url(#clipPath-1)"/>
    <path id="path-1-s=1" d="M 183.6 130.0 L 183.6 129.2 L 183.6 128.5 L 183.6 127.7 L 183.5 126.9 L 183.5 126.2 L 183.5 125.4 L 183.5 124.6 L 183.4 123.9 L 183.4 123.1 L 183.4 122.4 L 183.3 121.6 L 183.3 120.8 L 183.2 120.1 L 183.2 119.3 L 183.1 118.6 L 183.0 117.8 L 183.0 117.0 L 182.9 116.3 L 182.8 115.5 L 182.7 114.8 L 182.6 114.0 L 182.6 113.3 L 182.5 112.5 L 182.4 111.8 L 182.3 111.0 L 182.2 110.3 L 182.0 109.5 L 181.9 108.8 L 181.8 108.0 L 181.7 107.3 L 181.6 106.5 L 181.4 105.8 L 181.3 105.1 L 181.2 104.3 L 181.0 103.6 L 180.9 102.9 L 180.7 102.1 L 180.6 101.4 L 180.4 100.7 L 180.3 100.0 L 180.1 99.2 L 179.9 98.5 L 179.8 97.8 L 179.6 97.1 L 179.4 96.4 L 179.2 95.7 L 179.0 94.9 L 178.8 94.2 L 178.7 93.5 L 178.5 92.8 L 178.3 92.1 L 178.1 91.4 L 177.8 90.7 L 177.6 90.0 L 177.4 89.4 L 177.2 88.7 L 177.0 88.0 L 176.8 87.3 L 176.5 86.6 L 176.3 85.9 L 176.1 85.3 L 175.8 84.6 L 175.4 84.2 L 174.7 83.9 L 174.1 83.7 L 173.4 83.5 L 172.7 83.2 L 172.0 83.0 L 171.3 82.8 L 170.6 82.6 L 170.0 82.4 L 169.3 82.2 L 168.6 81.9 L 167.9 81.7 L 167.2 81.5 L 166.5 81.3 L 165.8 81.2 L 165.1 81.0 L 164.3 80.8 L 163.6 80.6 L 162.9 80.4 L 162.2 80.2 L 161.5 80.1 L 160.8 79.9 L 160.0 79.7 L 159.3 79.6 L 158.6 79.4 L 157.9 79.3 L 157.1 79.1 L 156.4 79.0 L 155.7 78.8 L 154.9 78.7 L 154.2 78.6 L 153.5 78.4 L 152.7 78.3 L 152.0 78.2 L 151.2 78.1 L 150.5 78.0 L 149.7 77.8 L 149.0 77.7 L 148.2 77.6 L 147.5 77.5 L 146.7 77.4 L 146.0 77.4 L 145.2 77.3 L 144.5 77.2 L 143.7 77.1 L 143.0 77.0 L 142.2 77.0 L 141.4 76.9 L 140.7 76.8 L 139.9 76.8 L 139.2 76.7 L 138.4 76.7 L 137.6 76.6 L 136.9 76.6 L 136.1 76.6 L 135.4 76.5 L 134.6 76.5 L 133.8 76.5 L 133.1 76.5 L 132.3 76.4 L 131.5 76.4 L 130.8 76.4 L 130.0 76.4 L 129.2 76.4 L 128.5 76.4 L 127.7 76.4 L 126.9 76.5 L 126.2 76.5 L 125.4 76.5 L 124.6 76.5 L 123.9 76.6 L 123.1 76.6 L 122.4 76.6 L 121.6 76.7 L 120.8 76.7 L 120.1 76.8 L 119.3 76.8 L 118.6 76.9 L 117.8 77.0 L 117.0 77.0 L 116.3 77.1 L 115.5 77.2 L 114.8 77.3 L 114.0 77.4 L 113.3 77.4 L 112.5 77.5 L 111.8 77.6 L 111.0 77.7 L 110.3 77.8 L 109.5 78.0 L 108.8 78.1 L 108.0 78.2 L 107.3 78.3 L 106.5 78.4 L 105.8 78.6 L 105.1 78.7 L 104.3 78.8 L 103.6 79.0 L 102.9 79.1 L 102.1 79.3 L 101.4 79.4 L 100.7 79.6 L 100.0 79.7 L 99.2 79.9 L 98.5 80.1 L 97.8 80.2 L 97.1 80.4 L 96.4 80.6 L 95.7 80.8 L 94.9 81.0 L 94.2 81.2 L 93.5 81.3 L 92.8 81.5 L 92.1 81.7 L 91.4 81.9 L 90.7 82.2 L 90.0 82.4 L 89.4 82.6 L 88.7 82.8 L 88.0 83.0 L 87.3 83.2 L 86.6 83.5 L 85.9 83.7 L 85.3 83.9 L 84.6 84.2 L 84.2 84.6 L 83.9 85.3 L 83.7 85.9 L 83.5 86.6 L 83.2 87.3 L 83.0 88.0 L 82.8 88.7 L 82.6 89.4 L 82.4 90.0 L 82.2 90.7 L 81.9 91.4 L 81.7 92.1 L 81.5 92.8 L 81.3 93.5 L 81.2 94.2 L 81.0 94.9 L 80.8 95.7 L 80.6 96.4 L 80.4 97.1 L 80.2 97.8 L 80.1 98.5 L 79.9 99.2 L 79.7 100.0 L 79.6 100.7 L 79.4 101.4 L 79.3 102.1 L 79.1 102.9 L 79.0 103.6 L 78.8 104.3 L 78.7 105.1 L 78.6 105.8 L 78.4 106.5 L 78.3 107.3 L 78.2 108.0 L 78.1 108.8 L 78.0 109.5 L 77.8 110.3 L 77.7 111.0 L 77.6 111.8 L 77.5 112.5 L 77.4 113.3 L 77.4 114.0 L 77.3 114.8 L 77.2 115.5 L 77.1 116.3 L 77.0 117.0 L 77.0 117.8 L 76.9 118.6 L 76.8 119.3 L 76.8 120.1 L 76.7 120.8 L 76.7 121.6 L 76.6 122.4 L 76.6 123.1 L 76.6 123.9 L 76.5 124.6 L 76.5 125.4 L 76.5 126.2 L 76.5 126.9 L 76.4 127.7 L 76.4 128.5 L 76.4 129.2 L 76.4 130.0 L 76.4 130.8 L 76.4 131.5 L 76.4 132.3 L 76.5 133.1 L 76.5 133.8 L 76.5 134.6 L 76.5 135.4 L 76.6 136.1 L 76.6 136.9 L 76.6 137.6 L 76.7 138.4 L 76.7 139.2 L 76.8 139.9 L 76.8 140.7 L 76.9 141.4 L 77.0 142.2 L 77.0 143.0 L 77.1 143.7 L 77.2 144.5 L 77.3 145.2 L 77.4 146.0 L 77.4 146.7 L 77.5 147.5 L 77.6 148.2 L 77.7 149.0 L 77.8 149.7 L 78.0 150.5 L 78.1 151.2 L 78.2 152.0 L 78.3 152.7 L 78.4 153.5 L 78.6 154.2 L 78.7 154.9 L 78.8 155.7 L 79.0 156.4 L 79.1 157.1 L 79.3 157.9 L 79.4 158.6 L 79.6 159.3 L 79.7 160.0 L 79.9 160.8 L 80.1 161.5 L 80.2 162.2 L 80.4 162.9 L 80.6 163.6 L 80.8 164.3 L 81.0 165.1 L 81.2 165.8 L 81.3 166.5 L 81.5 167.2 L 81.7 167.9 L 81.9 168.6 L 82.2 169.3 L 82.4 170.0 L 82.6 170.6 L 82.8 171.3 L 83.0 172.0 L 83.2 172.7 L 83.5 173.4 L 83.7 174.1 L 83.9 174.7 L 84.2 175.4 L 84.6 175.8 L 85.3 176.1 L 85.9 176.3 L 86.6 176.5 L 87.3 176.8 L 88.0 177.0 L 88.7 177.2 L 89.4 177.4 L 90.0 177.6 L 90.7 177.8 L 91.4 178.1 L 92.1 178.3 L 92.8 178.5 L 93.5 178.7 L 94.2 178.8 L 94.9 179.0 L 95.7 179.2 L 96.4 179.4 L 97.1 179.6 L 97.8 179.8 L 98.5 179.9 L 99.2 180.1 L 100.0 180.3 L 100.7 180.4 L 101.4 180.6 L 102.1 180.7 L 102.9 180.9 L 103.6 181.0 L 104.3 181.2 L 105.1 181.3 L 105.8 181.4 L 106.5 181.6 L 107.3 181.7 L 108.0 181.8 L 108.8 181.9 L 109.5 182.0 L 110.3 182.2 L 111.0 182.3 L 111.8 182.4 L 112.5 182.5 L 113.3 182.6 L 114.0 182.6 L 114.8 182.7 L 115.5 182.8 L 116.3 182.9 L 117.0 183.0 L 117.8 183.0 L 118.6 183.1 L 119.3 183.2 L 120.1 183.2 L 120.8 183.3 L 121.6 183.3 L 122.4 183.4 L 123.1 183.4 L 123.9 183.4 L 124.6 183.5 L 125.4 183.5 L 126.2 183.5 L 126.9 183.5 L 127.7 183.6 L 128.5 183.6 L 129.2 183.6 L 130.0 183.6 L 130.8 183.6 L 131.5 183.6 L 132.3 183.6 L 133.1 183.5 L 133.8 183.5 L 134.6 183.5 L 135.4 183.5 L 136.1 183.4 L 136.9 183.4 L 137.6 183.4 L 138.4 183.3 L 139.2 183.3 L 139.9 183.2 L 140.7 183.2 L 141.4 183.1 L 142.2 183.0 L 143.0 183.0 L 143.7 182.9 L 144.5 182.8 L 145.2 182.7 L 146.0 182.6 L 146.7 182.6 L 147.5 182.5 L 148.2 182.4 L 149.0 182.3 L 149.7 182.2 L 150.5 182.0 L 151.2 181.9 L 152.0 181.8 L 152.7 181.7 L 153.5 181.6 L 154.2 181.4 L 154.9 181.3 L 155.7 181.2 L 156.4 181.0 L 157.1 180.9 L 157.9 180.7 L 158.6 180.6 L 159.3 180.4 L 160.0 180.3 L 160.8 180.1 L 161.5 179.9 L 162.2 179.8 L 162.9 179.6 L 163.6 179.4 L 164.3 179.2 L 165.1 179.0 L 165.8 178.8 L 166.5 178.7 L 167.2 178.5 L 167.9 178.3 L 168.6 178.1 L 169.3 177.8 L 170.0 177.6 L 170.6 177.4 L 171.3 177.2 L 172.0 177.0 L 172.7 176.8 L 173.4 176.5 L 174.1 176.3 L 174.7 176.1 L 175.4 175.8 L 175.8 175.4 L 176.1 174.7 L 176.3 174.1 L 176.5 173.4 L 176.8 172.7 L 177.0 172.0 L 177.2 171.3 L 177.4 170.6 L 177.6 170.0 L 177.8 169.3 L 178.1 168.6 L 178.3 167.9 L 178.5 167.2 L 178.7 166.5 L 178.8 165.8 L 179.0 165.1 L 179.2 164.3 L 179.4 163.6 L 179.6 162.9 L 179.8 162.2 L 179.9 161.5 L 180.1 160.8 L 180.3 160.0 L 180.4 159.3 L 180.6 158.6 L 180.7 157.9 L 180.9 157.1 L 181.0 156.4 L 181.2 155.7 L 181.3 154.9 L 181.4 154.2 L 181.6 153.5 L 181.7 152.7 L 181.8 152.0 L 181.9 151.2 L 182.0 150.5 L 182.2 149.7 L 182.3 149.0 L 182.4 148.2 L 182.5 147.5 L 182.6 146.7 L 182.6 146.0 L 182.7 145.2 L 182.8 144.5 L 182.9 143.7 L 183.0 143.0 L 183.0 142.2 L 183.1 141.4 L 183.2 140.7 L 183.2 139.9 L 183.3 139.2 L 183.3 138.4 L 183.4 137.6 L 183.4 136.9 L 183.4 136.1 L 183.5 135.4 L 183.5 134.6 L 183.5 133.8 L 183.5 133.1 L 183.6 132.3 L 183.6 131.5 L 183.6 130.8 L 183.6 130.0" stroke="blue" stroke-width="2" fill="none" clip-path="url(#clipPath-1)"/>
    <path id="path-2-s=2" d="M 201.4 130.0 L 201.4 128.9 L 201.4 127.8 L 201.4 126.8 L 201.4 125.7 L 201.4 124.6 L 201.4 123.5 L 201.4 122.4 L 201.3 121.4 L 201.3 120.3 L 201.3 119.2 L 201.3 118.1 L 201.2 117.0 L 201.2 116.0 L 201.2 114.9 L 201.1 113.8 L 201.1 112.7 L 201.0 111.6 L 201.0 110.6 L 200.9 109.5 L 200.9 108.4 L 200.8 107.3 L 200.8 106.3 L 200.7 105.2 L 200.6 104.1 L 200.6 103.1 L 200.5 102.0 L 200.4 100.9 L 200.3 99.8 L 200.3 98.8 L 200.2 97.7 L 200.1 96.6 L 200.0 95.6 L 199.9 94.5 L 199.8 93.5 L 199.7 92.4 L 199.6 91.3 L 199.5 90.3 L 199.4 89.2 L 199.3 88.2 L 199.2 87.1 L 199.1 86.1 L 199.0 85.0 L 198.9 84.0 L 198.8 82.9 L 198.6 81.9 L 198.5 80.8 L 198.4 79.8 L 198.3 78.7 L 198.1 77.7 L 198.0 76.6 L 197.9 75.6 L 197.7 74.6 L 197.6 73.5 L 197.5 72.5 L 197.3 71.5 L 197.2 70.4 L 197.0 69.4 L 196.9 68.4 L 196.7 67.4 L 196.6 66.3 L 196.4 65.3 L 196.3 64.3 L 195.7 63.7 L 194.7 63.6 L 193.7 63.4 L 192.6 63.3 L 191.6 63.1 L 190.6 63.0 L 189.6 62.8 L 188.5 62.7 L 187.5 62.5 L 186.5 62.4 L 185.4 62.3 L 184.4 62.1 L 183.4 62.0 L 182.3 61.9 L 181.3 61.7 L 180.2 61.6 L 179.2 61.5 L 178.1 61.4 L 177.1 61.2 L 176.0 61.1 L 175.0 61.0 L 173.9 60.9 L 172.9 60.8 L 171.8 60.7 L 170.8 60.6 L 169.7 60.5 L 168.7 60.4 L 167.6 60.3 L 166.5 60.2 L 165.5 60.1 L 164.4 60.0 L 163.4 59.9 L 162.3 59.8 L 161.2 59.7 L 160.2 59.7 L 159.1 59.6 L 158.0 59.5 L 156.9 59.4 L 155.9 59.4 L 154.8 59.3 L 153.7 59.2 L 152.7 59.2 L 151.6 59.1 L 150.5 59.1 L 149.4 59.0 L 148.4 59.0 L 147.3 58.9 L 146.2 58.9 L 145.1 58.8 L 144.0 58.8 L 143.0 58.8 L 141.9 58.7 L 140.8 58.7 L 139.7 58.7 L 138.6 58.7 L 137.6 58.6 L 136.5 58.6 L 135.4 58.6 L 134.3 58.6 L 133.2 58.6 L 132.2 58.6 L 131.1 58.6 L 130.0 58.6 L 128.9 58.6 L 127.8 58.6 L 126.8 58.6 L 125.7 58.6 L 124.6 58.6 L 123.5 58.6 L 122.4 58.6 L 121.4 58.7 L 120.3 58.7 L 119.2 58.7 L 118.1 58.7 L 117.0 58.8 L 116.0 58.8 L 114.9 58.8 L 113.8 58.9 L 112.7 58.9 L 111.6 59.0 L 110.6 59.0 L 109.5 59.1 L 108.4 59.1 L 107.3 59.2 L 106.3 59.2 L 105.2 59.3 L 104.1 59.4 L 103.1 59.4 L 102.0 59.5 L 100.9 59.6 L 99.8 59.7 L 98.8 59.7 L 97.7 59.8 L 96.6 59.9 L 95.6 60.0 L 94.5 60.1 L 93.5 60.2 L 92.4 60.3 L 91.3 60.4 L 90.3 60.5 L 89.2 60.6 L 88.2 60.7 L 87.1 60.8 L 86.1 60.9 L 85.0 61.0 L 84.0 61.1 L 82.9 61.2 L 81.9 61.4 L 80.8 61.5 L 79.8 61.6 L 78.7 61.7 L 77.7 61.9 L 76.6 62.0 L 75.6 62.1 L 74.6 62.3 L 73.5 62.4 L 72.5 62.5 L 71.5 62.7 L 70.4 62.8 L 69.4 63.0 L 68.4 63.1 L 67.4 63.3 L 66.3 63.4 L 65.3 63.6 L 64.3 63.7 L 63.7 64.3 L 63.6 65.3 L 63.4 66.3 L 63.3 67.4 L 63.1 68.4 L 63.0 69.4 L 62.8 70.4 L 62.7 71.5 L 62.5 72.5 L 62.4 73.5 L 62.3 74.6 L 62.1 75.6 L 62.0 76.6 L 61.9 77.7 L 61.7 78.7 L 61.6 79.8 L 61.5 80.8 L 61.4 81.9 L 61.2 82.9 L 61.1 84.0 L 61.0 85.0 L 60.9 86.1 L 60.8 87.1 L 60.7 88.2 L 60.6 89.2 L 60.5 90.3 L 60.4 91.3 L 60.3 92.4 L 60.2 93.5 L 60.1 94.5 L 60.0 95.6 L 59.9 96.6 L 59.8 97.7 L 59.7 98.8 L 59.7 99.8 L 59.6 100.9 L 59.5 102.0 L 59.4 103.1 L 59.4 104.1 L 59.3 105.2 L 59.2 106.3 L 59.2 107.3 L 59.1 108.4 L 59.1 109.5 L 59.0 110.6 L 59.0 111.6 L 58.9 112.7 L 58.9 113.8 L 58.8 114.9 L 58.8 116.0 L 58.8 117.0 L 58.7 118.1 L 58.7 119.2 L 58.7 120.3 L 58.7 121.4 L 58.6 122.4 L 58.6 123.5 L 58.6 124.6 L 58.6 125.7 L 58.6 126.8 L 58.6 127.8 L 58.6 128.9 L 58.6 130.0 L 58.6 131.1 L 58.6 132.2 L 58.6 133.2 L 58.6 134.3 L 58.6 135.4 L 58.6 136.5 L 58.6 137.6 L 58.7 138.6 L 58.7 139.7 L 58.7 140.8 L 58.7 141.9 L 58.8 143.0 L 58.8 144.0 L 58.8 145.1 L 58.9 146.2 L 58.9 147.3 L 59.0 148.4 L 59.0 149.4 L 59.1 150.5 L 59.1 151.6 L 59.2 152.7 L 59.2 153.7 L 59.3 154.8 L 59.4 155.9 L 59.4 156.9 L 59.5 158.0 L 59.6 159.1 L 59.7 160.2 L 59.7 161.2 L 59.8 162.3 L 59.9 163.4 L 60.0 164.4 L 60.1 165.5 L 60.2 166.5 L 60.3 167.6 L 60.4 168.7 L 60.5 169.7 L 60.6 170.8 L 60.7 171.8 L 60.8 172.9 L 60.9 173.9 L 61.0 175.0 L 61.1 176.0 L 61.2 177.1 L 61.4 178.1 L 61.5 179.2 L 61.6 180.2 L 61.7 181.3 L 61.9 182.3 L 62.0 183.4 L 62.1 184.4 L 62.3 185.4 L 62.4 186.5 L 62.5 187.5 L 62.7 188.5 L 62.8 189.6 L 63.0 190.6 L 63.1 191.6 L 63.3 192.6 L 63.4 193.7 L 63.6 194.7 L 63.7 195.7 L 64.3 196.3 L 65.3 196.4 L 66.3 196.6 L 67.4 196.7 L 68.4 196.9 L 69.4 197.0 L 70.4 197.2 L 71.5 197.3 L 72.5 197.5 L 73.5 197.6 L 74.6 197.7 L 75.6 197.9 L 76.6 198.0 L 77.7 198.1 L 78.7 198.3 L 79.8 198.4 L 80.8 198.5 L 81.9 198.6 L 82.9 198.8 L 84.0 198.9 L 85.0 199.0 L 86.1 199.1 L 87.1 199.2 L 88.2 199.3 L 89.2 199.4 L 90.3 199.5 L 91.3 199.6 L 92.4 199.7 L 93.5 199.8 L 94.5 199.9 L 95.6 200.0 L 96.6 200.1 L 97.7 200.2 L 98.8 200.3 L 99.8 200.3 L 100.9 200.4 L 102.0 200.5 L 103.1 200.6 L 104.1 200.6 L 105.2 200.7 L 106.3 200.8 L 107.3 200.8 L 108.4 200.9 L 109.5 200.9 L 110.6 201.0 L 111.6 201.0 L 112.7 201.1 L 113.8 201.1 L 114.9 201.2 L 116.0 201.2 L 117.0 201.2 L 118.1 201.3 L 119.2 201.3 L 120.3 201.3 L 121.4 201.3 L 122.4 201.4 L 123.5 201.4 L 124.6 201.4 L 125.7 201.4 L 126.8 201.4 L 127.8 201.4 L 128.9 201.4 L 130.0 201.4 L 131.1 201.4 L 132.2 201.4 L 133.2 201.4 L 134.3 201.4 L 135.4 201.4 L 136.5 201.4 L 137.6 201.4 L 138.6 201.3 L 139.7 201.3 L 140.8 201.3 L 141.9 201.3 L 143.0 201.2 L 144.0 201.2 L 145.1 201.2 L 146.2 201.1 L 147.3 201.1 L 148.4 201.0 L 149.4 201.0 L 150.5 200.9 L 151.6 200.9 L 152.7 200.8 L 153.7 200.8 L 154.8 200.7 L 155.9 200.6 L 156.9 200.6 L 158.0 200.5 L 159.1 200.4 L 160.2 200.3 L 161.2 200.3 L 162.3 200.2 L 163.4 200.1 L 164.4 200.0 L 165.5 199.9 L 166.5 199.8 L 167.6 199.7 L 168.7 199.6 L 169.7 199.5 L 170.8 199.4 L 171.8 199.3 L 172.9 199.2 L 173.9 199.1 L 175.0 199.0 L 176.0 198.9 L 177.1 198.8 L 178.1 198.6 L 179.2 198.5 L 180.2 198.4 L 181.3 198.3 L 182.3 198.1 L 183.4 198.0 L 184.4 197.9 L 185.4 197.7 L 186.5 197.6 L 187.5 197.5 L 188.5 197.3 L 189.6 197.2 L 190.6 197.0 L 191.6 196.9 L 192.6 196.7 L 193.7 196.6 L 194.7 196.4 L 195.7 196.3 L 196.3 195.7 L 196.4 194.7 L 196.6 193.7 L 196.7 192.6 L 196.9 191.6 L 197.0 190.6 L 197.2 189.6 L 197.3 188.5 L 197.5 187.5 L 197.6 186.5 L 197.7 185.4 L 197.9 184.4 L 198.0 183.4 L 198.1 182.3 L 198.3 181.3 L 198.4 180.2 L 198.5 179.2 L 198.6 178.1 L 198.8 177.1 L 198.9 176.0 L 199.0 175.0 L 199.1 173.9 L 199.2 172.9 L 199.3 171.8 L 199.4 170.8 L 199.5 169.7 L 199.6 168.7 L 199.7 167.6 L 199.8 166.5 L 199.9 165.5 L 200.0 164.4 L 200.1 163.4 L 200.2 162.3 L 200.3 161.2 L 200.3 160.2 L 200.4 159.1 L 200.5 158.0 L 200.6 156.9 L 200.6 155.9 L 200.7 154.8 L 200.8 153.7 L 200.8 152.7 L 200.9 151.6 L 200.9 150.5 L 201.0 149.4 L 201.0 148.4 L 201.1 147.3 L 201.1 146.2 L 201.2 145.1 L 201.2 144.0 L 201.2 143.0 L 201.3 141.9 L 201.3 140.8 L 201.3 139.7 L 201.3 138.6 L 201.4 137.6 L 201.4 136.5 L 201.4 135.4 L 201.4 134.3 L 201.4 133.2 L 201.4 132.2 L 201.4 131.1 L 201.4 130.0" stroke="blue" stroke-width="2" fill="none" clip-path="url(#clipPath-1)"/>
    <path id="path-3-s=3" d="M 219.3 130.0 L 219.3 128.6 L 219.3 127.2 L 219.3 125.8 L 219.3 124.4 L 219.3 123.0 L 219.3 121.6 L 219.3 120.2 L 219.2 118.8 L 219.2 117.4 L 219.2 116.0 L 219.2 114.6 L 219.2 113.2 L 219.2 111.8 L 219.1 110.4 L 219.1 109.0 L 219.1 107.6 L 219.1 106.2 L 219.1 104.9 L 219.0 103.5 L 219.0 102.1 L 219.0 100.7 L 218.9 99.3 L 218.9 97.9 L 218.9 96.5 L 218.8 95.1 L 218.8 93.7 L 218.8 92.3 L 218.7 90.9 L 218.7 89.5 L 218.7 88.1 L 218.6 86.8 L 218.6 85.4 L 218.5 84.0 L 218.5 82.6 L 218.4 81.2 L 218.4 79.8 L 218.3 78.4 L 218.3 77.0 L 218.2 75.7 L 218.2 74.3 L 218.1 72.9 L 218.1 71.5 L 218.0 70.1 L 218.0 68.7 L 217.9 67.4 L 217.8 66.0 L 217.8 64.6 L 217.7 63.2 L 217.6 61.8 L 217.6 60.5 L 217.5 59.1 L 217.4 57.7 L 217.4 56.3 L 217.3 55.0 L 217.2 53.6 L 217.2 52.2 L 217.1 50.9 L 217.0 49.5 L 216.9 48.1 L 216.9 46.7 L 216.8 45.4 L 216.7 44.0 L 216.0 43.3 L 214.6 43.2 L 213.3 43.1 L 211.9 43.1 L 210.5 43.0 L 209.1 42.9 L 207.8 42.8 L 206.4 42.8 L 205.0 42.7 L 203.7 42.6 L 202.3 42.6 L 200.9 42.5 L 199.5 42.4 L 198.2 42.4 L 196.8 42.3 L 195.4 42.2 L 194.0 42.2 L 192.6 42.1 L 191.3 42.0 L 189.9 42.0 L 188.5 41.9 L 187.1 41.9 L 185.7 41.8 L 184.3 41.8 L 183.0 41.7 L 181.6 41.7 L 180.2 41.6 L 178.8 41.6 L 177.4 41.5 L 176.0 41.5 L 174.6 41.4 L 173.2 41.4 L 171.9 41.3 L 170.5 41.3 L 169.1 41.3 L 167.7 41.2 L 166.3 41.2 L 164.9 41.2 L 163.5 41.1 L 162.1 41.1 L 160.7 41.1 L 159.3 41.0 L 157.9 41.0 L 156.5 41.0 L 155.1 40.9 L 153.8 40.9 L 152.4 40.9 L 151.0 40.9 L 149.6 40.9 L 148.2 40.8 L 146.8 40.8 L 145.4 40.8 L 144.0 40.8 L 142.6 40.8 L 141.2 40.8 L 139.8 40.7 L 138.4 40.7 L 137.0 40.7 L 135.6 40.7 L 134.2 40.7 L 132.8 40.7 L 131.4 40.7 L 130.0 40.7 L 128.6 40.7 L 127.2 40.7 L 125.8 40.7 L 124.4 40.7 L 123.0 40.7 L 121.6 40.7 L 120.2 40.7 L 118.8 40.8 L 117.4 40.8 L 116.0 40.8 L 114.6 40.8 L 113.2 40.8 L 111.8 40.8 L 110.4 40.9 L 109.0 40.9 L 107.6 40.9 L 106.2 40.9 L 104.9 40.9 L 103.5 41.0 L 102.1 41.0 L 100.7 41.0 L 99.3 41.1 L 97.9 41.1 L 96.5 41.1 L 95.1 41.2 L 93.7 41.2 L 92.3 41.2 L 90.9 41.3 L 89.5 41.3 L 88.1 41.3 L 86.8 41.4 L 85.4 41.4 L 84.0 41.5 L 82.6 41.5 L 81.2 41.6 L 79.8 41.6 L 78.4 41.7 L 77.0 41.7 L 75.7 41.8 L 74.3 41.8 L 72.9 41.9 L 71.5 41.9 L 70.1 42.0 L 68.7 42.0 L 67.4 42.1 L 66.0 42.2 L 64.6 42.2 L 63.2 42.3 L 61.8 42.4 L 60.5 42.4 L 59.1 42.5 L 57.7 42.6 L 56.3 42.6 L 55.0 42.7 L 53.6 42.8 L 52.2 42.8 L 50.9 42.9 L 49.5 43.0 L 48.1 43.1 L 46.7 43.1 L 45.4 43.2 L 44.0 43.3 L 43.3 44.0 L 43.2 45.4 L 43.1 46.7 L 43.1 48.1 L 43.0 49.5 L 42.9 50.9 L 42.8 52.2 L 42.8 53.6 L 42.7 55.0 L 42.6 56.3 L 42.6 57.7 L 42.5 59.1 L 42.4 60.5 L 42.4 61.8 L 42.3 63.2 L 42.2 64.6 L 42.2 66.0 L 42.1 67.4 L 42.0 68.7 L 42.0 70.1 L 41.9 71.5 L 41.9 72.9 L 41.8 74.3 L 41.8 75.7 L 41.7 77.0 L 41.7 78.4 L 41.6 79.8 L 41.6 81.2 L 41.5 82.6 L 41.5 84.0 L 41.4 85.4 L 41.4 86.8 L 41.3 88.1 L 41.3 89.5 L 41.3 90.9 L 41.2 92.3 L 41.2 93.7 L 41.2 95.1 L 41.1 96.5 L 41.1 97.9 L 41.1 99.3 L 41.0 100.7 L 41.0 102.1 L 41.0 103.5 L 40.9 104.9 L 40.9 106.2 L 40.9 107.6 L 40.9 109.0 L 40.9 110.4 L 40.8 111.8 L 40.8 113.2 L 40.8 114.6 L 40.8 116.0 L 40.8 117.4 L 40.8 118.8 L 40.7 120.2 L 40.7 121.6 L 40.7 123.0 L 40.7 124.4 L 40.7 125.8 L 40.7 127.2 L 40.7 128.6 L 40.7 130.0 L 40.7 131.4 L 40.7 132.8 L 40.7 134.2 L 40.7 135.6 L 40.7 137.0 L 40.7 138.4 L 40.7 139.8 L 40.8 141.2 L 40.8 142.6 L 40.8 144.0 L 40.8 145.4 L 40.8 146.8 L 40.8 148.2 L 40.9 149.6 L 40.9 151.0 L 40.9 152.4 L 40.9 153.8 L 40.9 155.1 L 41.0 156.5 L 41.0 157.9 L 41.0 159.3 L 41.1 160.7 L 41.1 162.1 L 41.1 163.5 L 41.2 164.9 L 41.2 166.3 L 41.2 167.7 L 41.3 169.1 L 41.3 170.5 L 41.3 171.9 L 41.4 173.2 L 41.4 174.6 L 41.5 176.0 L 41.5 177.4 L 41.6 178.8 L 41.6 180.2 L 41.7 181.6 L 41.7 183.0 L 41.8 184.3 L 41.8 185.7 L 41.9 187.1 L 41.9 188.5 L 42.0 189.9 L 42.0 191.3 L 42.1 192.6 L 42.2 194.0 L 42.2 195.4 L 42.3 196.8 L 42.4 198.2 L 42.4 199.5 L 42.5 200.9 L 42.6 202.3 L 42.6 203.7 L 42.7 205.0 L 42.8 206.4 L 42.8 207.8 L 42.9 209.1 L 43.0 210.5 L 43.1 211.9 L 43.1 213.3 L 43.2 214.6 L 43.3 216.0 L 44.0 216.7 L 45.4 216.8 L 46.7 216.9 L 48.1 216.9 L 49.5 217.0 L 50.9 217.1 L 52.2 217.2 L 53.6 217.2 L 55.0 217.3 L 56.3 217.4 L 57.7 217.4 L 59.1 217.5 L 60.5 217.6 L 61.8 217.6 L 63.2 217.7 L 64.6 217.8 L 66.0 217.8 L 67.4 217.9 L 68.7 218.0 L 70.1 218.0 L 71.5 218.1 L 72.9 218.1 L 74.3 218.2 L 75.7 218.2 L 77.0 218.3 L 78.4 218.3 L 79.8 218.4 L 81.2 218.4 L 82.6 218.5 L 84.0 218.5 L 85.4 218.6 L 86.8 218.6 L 88.1 218.7 L 89.5 218.7 L 90.9 218.7 L 92.3 218.8 L 93.7 218.8 L 95.1 218.8 L 96.5 218.9 L 97.9 218.9 L 99.3 218.9 L 100.7 219.0 L 102.1 219.0 L 103.5 219.0 L 104.9 219.1 L 106.2 219.1 L 107.6 219.1 L 109.0 219.1 L 110.4 219.1 L 111.8 219.2 L 113.2 219.2 L 114.6 219.2 L 116.0 219.2 L 117.4 219.2 L 118.8 219.2 L 120.2 219.3 L 121.6 219.3 L 123.0 219.3 L 124.4 219.3 L 125.8 219.3 L 127.2 219.3 L 128.6 219.3 L 130.0 219.3 L 131.4 219.3 L 132.8 219.3 L 134.2 219.3 L 135.6 219.3 L 137.0 219.3 L 138.4 219.3 L 139.8 219.3 L 141.2 219.2 L 142.6 219.2 L 144.0 219.2 L 145.4 219.2 L 146.8 219.2 L 148.2 219.2 L 149.6 219.1 L 151.0 219.1 L 152.4 219.1 L 153.8 219.1 L 155.1 219.1 L 156.5 219.0 L 157.9 219.0 L 159.3 219.0 L 160.7 218.9 L 162.1 218.9 L 163.5 218.9 L 164.9 218.8 L 166.3 218.8 L 167.7 218.8 L 169.1 218.7 L 170.5 218.7 L 171.9 218.7 L 173.2 218.6 L 174.6 218.6 L 176.0 218.5 L 177.4 218.5 L 178.8 218.4 L 180.2 218.4 L 181.6 218.3 L 183.0 218.3 L 184.3 218.2 L 185.7 218.2 L 187.1 218.1 L 188.5 218.1 L 189.9 218.0 L 191.3 218.0 L 192.6 217.9 L 194.0 217.8 L 195.4 217.8 L 196.8 217.7 L 198.2 217.6 L 199.5 217.6 L 200.9 217.5 L 202.3 217.4 L 203.7 217.4 L 205.0 217.3 L 206.4 217.2 L 207.8 217.2 L 209.1 217.1 L 210.5 217.0 L 211.9 216.9 L 213.3 216.9 L 214.6 216.8 L 216.0 216.7 L 216.7 216.0 L 216.8 214.6 L 216.9 213.3 L 216.9 211.9 L 217.0 210.5 L 217.1 209.1 L 217.2 207.8 L 217.2 206.4 L 217.3 205.0 L 217.4 203.7 L 217.4 202.3 L 217.5 200.9 L 217.6 199.5 L 217.6 198.2 L 217.7 196.8 L 217.8 195.4 L 217.8 194.0 L 217.9 192.6 L 218.0 191.3 L 218.0 189.9 L 218.1 188.5 L 218.1 187.1 L 218.2 185.7 L 218.2 184.3 L 218.3 183.0 L 218.3 181.6 L 218.4 180.2 L 218.4 178.8 L 218.5 177.4 L 218.5 176.0 L 218.6 174.6 L 218.6 173.2 L 218.7 171.9 L 218.7 170.5 L 218.7 169.1 L 218.8 167.7 L 218.8 166.3 L 218.8 164.9 L 218.9 163.5 L 218.9 162.1 L 218.9 160.7 L 219.0 159.3 L 219.0 157.9 L 219.0 156.5 L 219.1 155.1 L 219.1 153.8 L 219.1 152.4 L 219.1 151.0 L 219.1 149.6 L 219.2 148.2 L 219.2 146.8 L 219.2 145.4 L 219.2 144.0 L 219.2 142.6 L 219.2 141.2 L 219.3 139.8 L 219.3 138.4 L 219.3 137.0 L 219.3 135.6 L 219.3 134.2 L 219.3 132.8 L 219.3 131.4 L 219.3 130.0" stroke="blue" stroke-width="2" fill="none" clip-path="url(#clipPath-1)"/>
    <path id="path-4-s=4" d="M 237.1 130.0 L 237.1 128.3 L 237.1 126.6 L 237.1 124.9 L 237.1 123.1 L 237.1 121.4 L 237.1 119.7 L 237.1 118.0 L 237.1 116.3 L 237.1 114.6 L 237.1 112.9 L 237.1 111.1 L 237.1 109.4 L 237.1 107.7 L 237.1 106.0 L 237.1 104.3 L 237.1 102.6 L 237.1 100.9 L 237.1 99.1 L 237.1 97.4 L 237.1 95.7 L 237.1 94.0 L 237.1 92.3 L 237.1 90.6 L 237.1 88.9 L 237.1 87.1 L 237.1 85.4 L 237.1 83.7 L 237.1 82.0 L 237.1 80.3 L 237.1 78.6 L 237.1 76.9 L 237.1 75.1 L 237.1 73.4 L 237.1 71.7 L 237.1 70.0 L 237.1 68.3 L 237.1 66.6 L 237.1 64.9 L 237.1 63.1 L 237.1 61.4 L 237.1 59.7 L 237.1 58.0 L 237.1 56.3 L 237.1 54.6 L 237.1 52.9 L 237.1 51.1 L 237.1 49.4 L 237.1 47.7 L 237.1 46.0 L 237.1 44.3 L 237.1 42.6 L 237.1 40.9 L 237.1 39.1 L 237.1 37.4 L 237.1 35.7 L 237.1 34.0 L 237.1 32.3 L 237.1 30.6 L 237.1 28.9 L 237.1 27.1 L 237.1 25.4 L 237.1 23.7 L 236.3 22.9 L 234.6 22.9 L 232.9 22.9 L 231.1 22.9 L 229.4 22.9 L 227.7 22.9 L 226.0 22.9 L 224.3 22.9 L 222.6 22.9 L 220.9 22.9 L 219.1 22.9 L 217.4 22.9 L 215.7 22.9 L 214.0 22.9 L 212.3 22.9 L 210.6 22.9 L 208.9 22.9 L 207.1 22.9 L 205.4 22.9 L 203.7 22.9 L 202.0 22.9 L 200.3 22.9 L 198.6 22.9 L 196.9 22.9 L 195.1 22.9 L 193.4 22.9 L 191.7 22.9 L 190.0 22.9 L 188.3 22.9 L 186.6 22.9 L 184.9 22.9 L 183.1 22.9 L 181.4 22.9 L 179.7 22.9 L 178.0 22.9 L 176.3 22.9 L 174.6 22.9 L 172.9 22.9 L 171.1 22.9 L 169.4 22.9 L 167.7 22.9 L 166.0 22.9 L 164.3 22.9 L 162.6 22.9 L 160.9 22.9 L 159.1 22.9 L 157.4 22.9 L 155.7 22.9 L 154.0 22.9 L 152.3 22.9 L 150.6 22.9 L 148.9 22.9 L 147.1 22.9 L 145.4 22.9 L 143.7 22.9 L 142.0 22.9 L 140.3 22.9 L 138.6 22.9 L 136.9 22.9 L 135.1 22.9 L 133.4 22.9 L 131.7 22.9 L 130.0 22.9 L 128.3 22.9 L 126.6 22.9 L 124.9 22.9 L 123.1 22.9 L 121.4 22.9 L 119.7 22.9 L 118.0 22.9 L 116.3 22.9 L 114.6 22.9 L 112.9 22.9 L 111.1 22.9 L 109.4 22.9 L 107.7 22.9 L 106.0 22.9 L 104.3 22.9 L 102.6 22.9 L 100.9 22.9 L 99.1 22.9 L 97.4 22.9 L 95.7 22.9 L 94.0 22.9 L 92.3 22.9 L 90.6 22.9 L 88.9 22.9 L 87.1 22.9 L 85.4 22.9 L 83.7 22.9 L 82.0 22.9 L 80.3 22.9 L 78.6 22.9 L 76.9 22.9 L 75.1 22.9 L 73.4 22.9 L 71.7 22.9 L 70.0 22.9 L 68.3 22.9 L 66.6 22.9 L 64.9 22.9 L 63.1 22.9 L 61.4 22.9 L 59.7 22.9 L 58.0 22.9 L 56.3 22.9 L 54.6 22.9 L 52.9 22.9 L 51.1 22.9 L 49.4 22.9 L 47.7 22.9 L 46.0 22.9 L 44.3 22.9 L 42.6 22.9 L 40.9 22.9 L 39.1 22.9 L 37.4 22.9 L 35.7 22.9 L 34.0 22.9 L 32.3 22.9 L 30.6 22.9 L 28.9 22.9 L 27.1 22.9 L 25.4 22.9 L 23.7 22.9 L 22.9 23.7 L 22.9 25.4 L 22.9 27.1 L 22.9 28.9 L 22.9 30.6 L 22.9 32.3 L 22.9 34.0 L 22.9 35.7 L 22.9 37.4 L 22.9 39.1 L 22.9 40.9 L 22.9 42.6 L 22.9 44.3 L 22.9 46.0 L 22.9 47.7 L 22.9 49.4 L 22.9 51.1 L 22.9 52.9 L 22.9 54.6 L 22.9 56.3 L 22.9 58.0 L 22.9 59.7 L 22.9 61.4 L 22.9 63.1 L 22.9 64.9 L 22.9 66.6 L 22.9 68.3 L 22.9 70.0 L 22.9 71.7 L 22.9 73.4 L 22.9 75.1 L 22.9 76.9 L 22.9 78.6 L 22.9 80.3 L 22.9 82.0 L 22.9 83.7 L 22.9 85.4 L 22.9 87.1 L 22.9 88.9 L 22.9 90.6 L 22.9 92.3 L 22.9 94.0 L 22.9 95.7 L 22.9 97.4 L 22.9 99.1 L 22.9 100.9 L 22.9 102.6 L 22.9 104.3 L 22.9 106.0 L 22.9 107.7 L 22.9 109.4 L 22.9 111.1 L 22.9 112.9 L 22.9 114.6 L 22.9 116.3 L 22.9 118.0 L 22.9 119.7 L 22.9 121.4 L 22.9 123.1 L 22.9 124.9 L 22.9 126.6 L 22.9 128.3 L 22.9 130.0 L 22.9 131.7 L 22.9 133.4 L 22.9 135.1 L 22.9 136.9 L 22.9 138.6 L 22.9 140.3 L 22.9 142.0 L 22.9 143.7 L 22.9 145.4 L 22.9 147.1 L 22.9 148.9 L 22.9 150.6 L 22.9 152.3 L 22.9 154.0 L 22.9 155.7 L 22.9 157.4 L 22.9 159.1 L 22.9 160.9 L 22.9 162.6 L 22.9 164.3 L 22.9 166.0 L 22.9 167.7 L 22.9 169.4 L 22.9 171.1 L 22.9 172.9 L 22.9 174.6 L 22.9 176.3 L 22.9 178.0 L 22.9 179.7 L 22.9 181.4 L 22.9 183.1 L 22.9 184.9 L 22.9 186.6 L 22.9 188.3 L 22.9 190.0 L 22.9 191.7 L 22.9 193.4 L 22.9 195.1 L 22.9 196.9 L 22.9 198.6 L 22.9 200.3 L 22.9 202.0 L 22.9 203.7 L 22.9 205.4 L 22.9 207.1 L 22.9 208.9 L 22.9 210.6 L 22.9 212.3 L 22.9 214.0 L 22.9 215.7 L 22.9 217.4 L 22.9 219.1 L 22.9 220.9 L 22.9 222.6 L 22.9 224.3 L 22.9 226.0 L 22.9 227.7 L 22.9 229.4 L 22.9 231.1 L 22.9 232.9 L 22.9 234.6 L 22.9 236.3 L 23.7 237.1 L 25.4 237.1 L 27.1 237.1 L 28.9 237.1 L 30.6 237.1 L 32.3 237.1 L 34.0 237.1 L 35.7 237.1 L 37.4 237.1 L 39.1 237.1 L 40.9 237.1 L 42.6 237.1 L 44.3 237.1 L 46.0 237.1 L 47.7 237.1 L 49.4 237.1 L 51.1 237.1 L 52.9 237.1 L 54.6 237.1 L 56.3 237.1 L 58.0 237.1 L 59.7 237.1 L 61.4 237.1 L 63.1 237.1 L 64.9 237.1 L 66.6 237.1 L 68.3 237.1 L 70.0 237.1 L 71.7 237.1 L 73.4 237.1 L 75.1 237.1 L 76.9 237.1 L 78.6 237.1 L 80.3 237.1 L 82.0 237.1 L 83.7 237.1 L 85.4 237.1 L 87.1 237.1 L 88.9 237.1 L 90.6 237.1 L 92.3 237.1 L 94.0 237.1 L 95.7 237.1 L 97.4 237.1 L 99.1 237.1 L 100.9 237.1 L 102.6 237.1 L 104.3 237.1 L 106.0 237.1 L 107.7 237.1 L 109.4 237.1 L 111.1 237.1 L 112.9 237.1 L 114.6 237.1 L 116.3 237.1 L 118.0 237.1 L 119.7 237.1 L 121.4 237.1 L 123.1 237.1 L 124.9 237.1 L 126.6 237.1 L 128.3 237.1 L 130.0 237.1 L 131.7 237.1 L 133.4 237.1 L 135.1 237.1 L 136.9 237.1 L 138.6 237.1 L 140.3 237.1 L 142.0 237.1 L 143.7 237.1 L 145.4 237.1 L 147.1 237.1 L 148.9 237.1 L 150.6 237.1 L 152.3 237.1 L 154.0 237.1 L 155.7 237.1 L 157.4 237.1 L 159.1 237.1 L 160.9 237.1 L 162.6 237.1 L 164.3 237.1 L 166.0 237.1 L 167.7 237.1 L 169.4 237.1 L 171.1 237.1 L 172.9 237.1 L 174.6 237.1 L 176.3 237.1 L 178.0 237.1 L 179.7 237.1 L 181.4 237.1 L 183.1 237.1 L 184.9 237.1 L 186.6 237.1 L 188.3 237.1 L 190.0 237.1 L 191.7 237.1 L 193.4 237.1 L 195.1 237.1 L 196.9 237.1 L 198.6 237.1 L 200.3 237.1 L 202.0 237.1 L 203.7 237.1 L 205.4 237.1 L 207.1 237.1 L 208.9 237.1 L 210.6 237.1 L 212.3 237.1 L 214.0 237.1 L 215.7 237.1 L 217.4 237.1 L 219.1 237.1 L 220.9 237.1 L 222.6 237.1 L 224.3 237.1 L 226.0 237.1 L 227.7 237.1 L 229.4 237.1 L 231.1 237.1 L 232.9 237.1 L 234.6 237.1 L 236.3 237.1 L 237.1 236.3 L 237.1 234.6 L 237.1 232.9 L 237.1 231.1 L 237.1 229.4 L 237.1 227.7 L 237.1 226.0 L 237.1 224.3 L 237.1 222.6 L 237.1 220.9 L 237.1 219.1 L 237.1 217.4 L 237.1 215.7 L 237.1 214.0 L 237.1 212.3 L 237.1 210.6 L 237.1 208.9 L 237.1 207.1 L 237.1 205.4 L 237.1 203.7 L 237.1 202.0 L 237.1 200.3 L 237.1 198.6 L 237.1 196.9 L 237.1 195.1 L 237.1 193.4 L 237.1 191.7 L 237.1 190.0 L 237.1 188.3 L 237.1 186.6 L 237.1 184.9 L 237.1 183.1 L 237.1 181.4 L 237.1 179.7 L 237.1 178.0 L 237.1 176.3 L 237.1 174.6 L 237.1 172.9 L 237.1 171.1 L 237.1 169.4 L 237.1 167.7 L 237.1 166.0 L 237.1 164.3 L 237.1 162.6 L 237.1 160.9 L 237.1 159.1 L 237.1 157.4 L 237.1 155.7 L 237.1 154.0 L 237.1 152.3 L 237.1 150.6 L 237.1 148.9 L 237.1 147.1 L 237.1 145.4 L 237.1 143.7 L 237.1 142.0 L 237.1 140.3 L 237.1 138.6 L 237.1 136.9 L 237.1 135.1 L 237.1 133.4 L 237.1 131.7 L 237.1 130.0" stroke="blue" stroke-width="2" fill="none" clip-path="url(#clipPath-1)"/>
  </g>
</svg>
