<svg xmlns="http://www.w3.org/2000/svg" id="diagram" width="260" height="260">
  <defs>
    <clipPath id="clipPath-0">
      <rect x="5.0" y="5.0" width="250.0" height="250.0"/>
    </clipPath>
    <clipPath id="clipPath-1">
      <rect x="5.0" y="5.0" width="250.0" height="250.0"/>
    </clipPath>
  </defs>
  <g id="axes" stroke="black" stroke-width="2">
    <line id="line-0" x1="5.0" y1="130.0" x2="255.0" y2="130.0" stroke="black" stroke-width="2"/>
    <line id="line-1" x1="130.0" y1="255.0" x2="130.0" y2="5.0" stroke="black" stroke-width="2"/>
  </g>
  <g id="g-0">
    <path id="path-0-k=1" d="M 255.0 130.0 L 254.9 126.1 L 254.5 122.2 L 253.9 118.3 L 253.0 114.5 L 251.9 110.7 L 250.6 107.0 L 249.1 103.4 L 247.3 99.9 L 245.3 96.5 L 243.1 93.3 L 240.7 90.2 L 238.1 87.2 L 235.3 84.4 L 232.3 81.8 L 229.2 79.4 L 226.0 77.2 L 222.6 75.2 L 219.1 73.4 L 215.5 71.9 L 211.8 70.6 L 208.0 69.5 L 204.2 68.6 L 200.3 68.0 L 196.4 67.6 L 192.5 67.5 L 188.6 67.6 L 184.7 68.0 L 180.8 68.6 L 177.0 69.5 L 173.2 70.6 L 169.5 71.9 L 165.9 73.4 L 162.4 75.2 L 159.0 77.2 L 155.8 79.4 L 152.7 81.8 L 149.7 84.4 L 146.9 87.2 L 144.3 90.2 L 141.9 93.3 L 139.7 96.5 L 137.7 99.9 L 135.9 103.4 L 134.4 107.0 L 133.1 110.7 L 132.0 114.5 L 131.1 118.3 L 130.5 122.2 L 130.1 126.1 L 130.0 130.0 L 130.1 133.9 L 130.5 137.8 L 131.1 141.7 L 132.0 145.5 L 133.1 149.3 L 134.4 153.0 L 135.9 156.6 L 137.7 160.1 L 139.7 163.5 L 141.9 166.7 L 144.3 169.8 L 146.9 172.8 L 149.7 175.6 L 152.7 178.2 L 155.8 180.6 L 159.0 182.8 L 162.4 184.8 L 165.9 186.6 L 169.5 188.1 L 173.2 189.4 L 177.0 190.5 L 180.8 191.4 L 184.7 192.0 L 188.6 192.4 L 192.5 192.5 L 196.4 192.4 L 200.3 192.0 L 204.2 191.4 L 208.0 190.5 L 211.8 189.4 L 215.5 188.1 L 219.1 186.6 L 222.6 184.8 L 226.0 182.8 L 229.2 180.6 L 232.3 178.2 L 235.3 175.6 L 238.1 172.8 L 240.7 169.8 L 243.1 166.7 L 245.3 163.5 L 247.3 160.1 L 249.1 156.6 L 250.6 153.0 L 251.9 149.3 L 253.0 145.5 L 253.9 141.7 L 254.5 137.8 L 254.9 133.9 Z" stroke="blue" stroke-width="2" stroke-dasharray="9 9" fill="none"/>
    <path id="path-1-k=1" d="M 130.0 130.0 L 129.9 126.1 L 129.5 122.2 L 128.9 118.3 L 128.0 114.5 L 126.9 110.7 L 125.6 107.0 L 124.1 103.4 L 122.3 99.9 L 120.3 96.5 L 118.1 93.3 L 115.7 90.2 L 113.1 87.2 L 110.3 84.4 L 107.3 81.8 L 104.2 79.4 L 101.0 77.2 L 97.6 75.2 L 94.1 73.4 L 90.5 71.9 L 86.8 70.6 L 83.0 69.5 L 79.2 68.6 L 75.3 68.0 L 71.4 67.6 L 67.5 67.5 L 63.6 67.6 L 59.7 68.0 L 55.8 68.6 L 52.0 69.5 L 48.2 70.6 L 44.5 71.9 L 40.9 73.4 L 37.4 75.2 L 34.0 77.2 L 30.8 79.4 L 27.7 81.8 L 24.7 84.4 L 21.9 87.2 L 19.3 90.2 L 16.9 93.3 L 14.7 96.5 L 12.7 99.9 L 10.9 103.4 L 9.4 107.0 L 8.1 110.7 L 7.0 114.5 L 6.1 118.3 L 5.5 122.2 L 5.1 126.1 L 5.0 130.0 L 5.1 133.9 L 5.5 137.8 L 6.1 141.7 L 7.0 145.5 L 8.1 149.3 L 9.4 153.0 L 10.9 156.6 L 12.7 160.1 L 14.7 163.5 L 16.9 166.7 L 19.3 169.8 L 21.9 172.8 L 24.7 175.6 L 27.7 178.2 L 30.8 180.6 L 34.0 182.8 L 37.4 184.8 L 40.9 186.6 L 44.5 188.1 L 48.2 189.4 L 52.0 190.5 L 55.8 191.4 L 59.7 192.0 L 63.6 192.4 L 67.5 192.5 L 71.4 192.4 L 75.3 192.0 L 79.2 191.4 L 83.0 190.5 L 86.8 189.4 L 90.5 188.1 L 94.1 186.6 L 97.6 184.8 L 101.0 182.8 L 104.2 180.6 L 107.3 178.2 L 110.3 175.6 L 113.1 172.8 L 115.7 169.8 L 118.1 166.7 L 120.3 163.5 L 122.3 160.1 L 124.1 156.6 L 125.6 153.0 L 126.9 149.3 L 128.0 145.5 L 128.9 141.7 L 129.5 137.8 L 129.9 133.9 Z" stroke="blue" stroke-width="2" stroke-dasharray="9 9" fill="none"/>
    <path id="path-2-k=2" d="M 192.5 130.0 L 192.4 128.0 L 192.3 126.1 L 191.9 124.1 L 191.5 122.2 L 191.0 120.3 L 190.3 118.5 L 189.5 116.7 L 188.6 114.9 L 187.6 113.3 L 186.5 111.6 L 185.3 110.1 L 184.0 108.6 L 182.6 107.2 L 181.2 105.9 L 179.6 104.7 L 178.0 103.6 L 176.3 102.6 L 174.6 101.7 L 172.8 100.9 L 170.9 100.3 L 169.0 99.7 L 167.1 99.3 L 165.2 99.0 L 163.2 98.8 L 161.2 98.8 L 159.3 98.8 L 157.3 99.0 L 155.4 99.3 L 153.5 99.7 L 151.6 100.3 L 149.7 100.9 L 147.9 101.7 L 146.2 102.6 L 144.5 103.6 L 142.9 104.7 L 141.3 105.9 L 139.9 107.2 L 138.5 108.6 L 137.2 110.1 L 136.0 111.6 L 134.9 113.3 L 133.9 114.9 L 133.0 116.7 L 132.2 118.5 L 131.5 120.3 L 131.0 122.2 L 130.6 124.1 L 130.2 126.1 L 130.1 128.0 L 130.0 130.0 L 130.1 132.0 L 130.2 133.9 L 130.6 135.9 L 131.0 137.8 L 131.5 139.7 L 132.2 141.5 L 133.0 143.3 L 133.9 145.1 L 134.9 146.7 L 136.0 148.4 L 137.2 149.9 L 138.5 151.4 L 139.9 152.8 L 141.3 154.1 L 142.9 155.3 L 144.5 156.4 L 146.2 157.4 L 147.9 158.3 L 149.7 159.1 L 151.6 159.7 L 153.5 160.3 L 155.4 160.7 L 157.3 161.0 L 159.3 161.2 L 161.2 161.2 L 163.2 161.2 L 165.2 161.0 L 167.1 160.7 L 169.0 160.3 L 170.9 159.7 L 172.8 159.1 L 174.6 158.3 L 176.3 157.4 L 178.0 156.4 L 179.6 155.3 L 181.2 154.1 L 182.6 152.8 L 184.0 151.4 L 185.3 149.9 L 186.5 148.4 L 187.6 146.7 L 188.6 145.1 L 189.5 143.3 L 190.3 141.5 L 191.0 139.7 L 191.5 137.8 L 191.9 135.9 L 192.3 133.9 L 192.4 132.0 Z" stroke="blue" stroke-width="2" stroke-dasharray="9 9" fill="none"/>
    <path id="path-3-k=2" d="M 130.0 130.0 L 129.9 128.0 L 129.8 126.1 L 129.4 124.1 L 129.0 122.2 L 128.5 120.3 L 127.8 118.5 L 127.0 116.7 L 126.1 114.9 L 125.1 113.3 L 124.0 111.6 L 122.8 110.1 L 121.5 108.6 L 120.1 107.2 L 118.7 105.9 L 117.1 104.7 L 115.5 103.6 L 113.8 102.6 L 112.1 101.7 L 110.3 100.9 L 108.4 100.3 L 106.5 99.7 L 104.6 99.3 L 102.7 99.0 L 100.7 98.8 L 98.7 98.8 L 96.8 98.8 L 94.8 99.0 L 92.9 99.3 L 91.0 99.7 L 89.1 100.3 L 87.2 100.9 L 85.4 101.7 L 83.7 102.6 L 82.0 103.6 L 80.4 104.7 L 78.8 105.9 L 77.4 107.2 L 76.0 108.6 L 74.7 110.1 L 73.5 111.6 L 72.4 113.3 L 71.4 114.9 L 70.5 116.7 L 69.7 118.5 L 69.0 120.3 L 68.5 122.2 L 68.1 124.1 L 67.7 126.1 L 67.6 128.0 L 67.5 130.0 L 67.6 132.0 L 67.7 133.9 L 68.1 135.9 L 68.5 137.8 L 69.0 139.7 L 69.7 141.5 L 70.5 143.3 L 71.4 145.1 L 72.4 146.7 L 73.5 148.4 L 74.7 149.9 L 76.0 151.4 L 77.4 152.8 L 78.8 154.1 L 80.4 155.3 L 82.0 156.4 L 83.7 157.4 L 85.4 158.3 L 87.2 159.1 L 89.1 159.7 L 91.0 160.3 L 92.9 160.7 L 94.8 161.0 L 96.8 161.2 L 98.8 161.2 L 100.7 161.2 L 102.7 161.0 L 104.6 160.7 L 106.5 160.3 L 108.4 159.7 L 110.3 159.1 L 112.1 158.3 L 113.8 157.4 L 115.5 156.4 L 117.1 155.3 L 118.7 154.1 L 120.1 152.8 L 121.5 151.4 L 122.8 149.9 L 124.0 148.4 L 125.1 146.7 L 126.1 145.1 L 127.0 143.3 L 127.8 141.5 L 128.5 139.7 L 129.0 137.8 L 129.4 135.9 L 129.8 133.9 L 129.9 132.0 Z" stroke="blue" stroke-width="2" stroke-dasharray="9 9" fill="none"/>
    <path id="path-4-k=3" d="M 171.7 130.0 L 171.6 128.7 L 171.5 127.4 L 171.3 126.1 L 171.0 124.8 L 170.6 123.6 L 170.2 122.3 L 169.7 121.1 L 169.1 120.0 L 168.4 118.8 L 167.7 117.8 L 166.9 116.7 L 166.0 115.7 L 165.1 114.8 L 164.1 113.9 L 163.1 113.1 L 162.0 112.4 L 160.9 111.7 L 159.7 111.1 L 158.5 110.6 L 157.3 110.2 L 156.0 109.8 L 154.7 109.5 L 153.4 109.3 L 152.1 109.2 L 150.8 109.2 L 149.5 109.2 L 148.2 109.3 L 146.9 109.5 L 145.7 109.8 L 144.4 110.2 L 143.2 110.6 L 142.0 111.1 L 140.8 111.7 L 139.7 112.4 L 138.6 113.1 L 137.6 113.9 L 136.6 114.8 L 135.6 115.7 L 134.8 116.7 L 134.0 117.8 L 133.2 118.8 L 132.6 120.0 L 132.0 121.1 L 131.5 122.3 L 131.0 123.6 L 130.7 124.8 L 130.4 126.1 L 130.2 127.4 L 130.0 128.7 L 130.0 130.0 L 130.0 131.3 L 130.2 132.6 L 130.4 133.9 L 130.7 135.2 L 131.0 136.4 L 131.5 137.7 L 132.0 138.9 L 132.6 140.0 L 133.2 141.2 L 134.0 142.2 L 134.8 143.3 L 135.6 144.3 L 136.6 145.2 L 137.6 146.1 L 138.6 146.9 L 139.7 147.6 L 140.8 148.3 L 142.0 148.9 L 143.2 149.4 L 144.4 149.8 L 145.7 150.2 L 146.9 150.5 L 148.2 150.7 L 149.5 150.8 L 150.8 150.8 L 152.1 150.8 L 153.4 150.7 L 154.7 150.5 L 156.0 150.2 L 157.3 149.8 L 158.5 149.4 L 159.7 148.9 L 160.9 148.3 L 162.0 147.6 L 163.1 146.9 L 164.1 146.1 L 165.1 145.2 L 166.0 144.3 L 166.9 143.3 L 167.7 142.2 L 168.4 141.2 L 169.1 140.0 L 169.7 138.9 L 170.2 137.7 L 170.6 136.4 L 171.0 135.2 L 171.3 133.9 L 171.5 132.6 L 171.6 131.3 Z" stroke="blue" stroke-width="2" stroke-dasharray="9 9" fill="none"/>
    <path id="path-5-k=3" d="M 130.0 130.0 L 130.0 128.7 L 129.8 127.4 L 129.6 126.1 L 129.3 124.8 L 129.0 123.6 L 128.5 122.3 L 128.0 121.1 L 127.4 120.0 L 126.8 118.8 L 126.0 117.8 L 125.2 116.7 L 124.4 115.7 L 123.4 114.8 L 122.4 113.9 L 121.4 113.1 L 120.3 112.4 L 119.2 111.7 L 118.0 111.1 L 116.8 110.6 L 115.6 110.2 L 114.3 109.8 L 113.1 109.5 L 111.8 109.3 L 110.5 109.2 L 109.2 109.2 L 107.9 109.2 L 106.6 109.3 L 105.3 109.5 L 104.0 109.8 L 102.7 110.2 L 101.5 110.6 L 100.3 111.1 L 99.1 111.7 L 98.0 112.4 L 96.9 113.1 L 95.9 113.9 L 94.9 114.8 L 94.0 115.7 L 93.1 116.7 L 92.3 117.8 L 91.6 118.8 L 90.9 120.0 L 90.3 121.1 L 89.8 122.3 L 89.4 123.6 L 89.0 124.8 L 88.7 126.1 L 88.5 127.4 L 88.4 128.7 L 88.3 130.0 L 88.4 131.3 L 88.5 132.6 L 88.7 133.9 L 89.0 135.2 L 89.4 136.4 L 89.8 137.7 L 90.3 138.9 L 90.9 140.0 L 91.6 141.2 L 92.3 142.2 L 93.1 143.3 L 94.0 144.3 L 94.9 145.2 L 95.9 146.1 L 96.9 146.9 L 98.0 147.6 L 99.1 148.3 L 100.3 148.9 L 101.5 149.4 L 102.7 149.8 L 104.0 150.2 L 105.3 150.5 L 106.6 150.7 L 107.9 150.8 L 109.2 150.8 L 110.5 150.8 L 111.8 150.7 L 113.1 150.5 L 114.3 150.2 L 115.6 149.8 L 116.8 149.4 L 118.0 148.9 L 119.2 148.3 L 120.3 147.6 L 121.4 146.9 L 122.4 146.1 L 123.4 145.2 L 124.4 144.3 L 125.2 143.3 L 126.0 142.2 L 126.8 141.2 L 127.4 140.0 L 128.0 138.9 L 128.5 137.7 L 129.0 136.4 L 129.3 135.2 L 129.6 133.9 L 129.8 132.6 L 130.0 131.3 Z" stroke="blue" stroke-width="2" stroke-dasharray="9 9" fill="none"/>
    <path id="path-6-k=4" d="M 161.2 130.0 L 161.2 129.0 L 161.1 128.0 L 161.0 127.1 L 160.8 126.1 L 160.5 125.2 L 160.2 124.2 L 159.8 123.3 L 159.3 122.5 L 158.8 121.6 L 158.3 120.8 L 157.7 120.0 L 157.0 119.3 L 156.3 118.6 L 155.6 118.0 L 154.8 117.4 L 154.0 116.8 L 153.2 116.3 L 152.3 115.9 L 151.4 115.5 L 150.5 115.1 L 149.5 114.9 L 148.6 114.7 L 147.6 114.5 L 146.6 114.4 L 145.6 114.4 L 144.6 114.4 L 143.7 114.5 L 142.7 114.7 L 141.7 114.9 L 140.8 115.1 L 139.9 115.5 L 139.0 115.9 L 138.1 116.3 L 137.3 116.8 L 136.4 117.4 L 135.7 118.0 L 134.9 118.6 L 134.2 119.3 L 133.6 120.0 L 133.0 120.8 L 132.4 121.6 L 131.9 122.5 L 131.5 123.3 L 131.1 124.2 L 130.8 125.2 L 130.5 126.1 L 130.3 127.1 L 130.1 128.0 L 130.0 129.0 L 130.0 130.0 L 130.0 131.0 L 130.1 132.0 L 130.3 132.9 L 130.5 133.9 L 130.8 134.8 L 131.1 135.8 L 131.5 136.7 L 131.9 137.5 L 132.4 138.4 L 133.0 139.2 L 133.6 140.0 L 134.2 140.7 L 134.9 141.4 L 135.7 142.0 L 136.4 142.6 L 137.3 143.2 L 138.1 143.7 L 139.0 144.1 L 139.9 144.5 L 140.8 144.9 L 141.7 145.1 L 142.7 145.3 L 143.7 145.5 L 144.6 145.6 L 145.6 145.6 L 146.6 145.6 L 147.6 145.5 L 148.6 145.3 L 149.5 145.1 L 150.5 144.9 L 151.4 144.5 L 152.3 144.1 L 153.2 143.7 L 154.0 143.2 L 154.8 142.6 L 155.6 142.0 L 156.3 141.4 L 157.0 140.7 L 157.7 140.0 L 158.3 139.2 L 158.8 138.4 L 159.3 137.5 L 159.8 136.7 L 160.2 135.8 L 160.5 134.8 L 160.8 133.9 L 161.0 132.9 L 161.1 132.0 L 161.2 131.0 Z" stroke="blue" stroke-width="2" stroke-dasharray="9 9" fill="none"/>
    <path id="path-7-k=4" d="M 130.0 130.0 L 130.0 129.0 L 129.9 128.0 L 129.7 127.1 L 129.5 126.1 L 129.2 125.2 L 128.9 124.2 L 128.5 123.3 L 128.1 122.5 L 127.6 121.6 L 127.0 120.8 L 126.4 120.0 L 125.8 119.3 L 125.1 118.6 L 124.3 118.0 L 123.6 117.4 L 122.7 116.8 L 121.9 116.3 L 121.0 115.9 L 120.1 115.5 L 119.2 115.1 L 118.3 114.9 L 117.3 114.7 L 116.3 114.5 L 115.4 114.4 L 114.4 114.4 L 113.4 114.4 L 112.4 114.5 L 111.4 114.7 L 110.5 114.9 L 109.5 115.1 L 108.6 115.5 L 107.7 115.9 L 106.8 116.3 L 106.0 116.8 L 105.2 117.4 L 104.4 118.0 L 103.7 118.6 L 103.0 119.3 L 102.3 120.0 L 101.7 120.8 L 101.2 121.6 L 100.7 122.5 L 100.2 123.3 L 99.8 124.2 L 99.5 125.2 L 99.2 126.1 L 99.0 127.1 L 98.9 128.0 L 98.8 129.0 L 98.8 130.0 L 98.8 131.0 L 98.9 132.0 L 99.0 132.9 L 99.2 133.9 L 99.5 134.8 L 99.8 135.8 L 100.2 136.7 L 100.7 137.5 L 101.2 138.4 L 101.7 139.2 L 102.3 140.0 L 103.0 140.7 L 103.7 141.4 L 104.4 142.0 L 105.2 142.6 L 106.0 143.2 L 106.8 143.7 L 107.7 144.1 L 108.6 144.5 L 109.5 144.9 L 110.5 145.1 L 111.4 145.3 L 112.4 145.5 L 113.4 145.6 L 114.4 145.6 L 115.4 145.6 L 116.3 145.5 L 117.3 145.3 L 118.3 145.1 L 119.2 144.9 L 120.1 144.5 L 121.0 144.1 L 121.9 143.7 L 122.7 143.2 L 123.6 142.6 L 124.3 142.0 L 125.1 141.4 L 125.8 140.7 L 126.4 140.0 L 127.0 139.2 L 127.6 138.4 L 128.1 137.5 L 128.5 136.7 L 128.9 135.8 L 129.2 134.8 L 129.5 133.9 L 129.7 132.9 L 129.9 132.0 L 130.0 131.0 Z" stroke="blue" stroke-width="2" stroke-dasharray="9 9" fill="none"/>
  </g>
  <g id="g-1">
    <path id="path-8-k=1" d="M 192.5 67.5 L 192.4 63.6 L 192.0 59.7 L 191.4 55.8 L 190.5 52.0 L 189.4 48.2 L 188.1 44.5 L 186.6 40.9 L 184.8 37.4 L 182.8 34.0 L 180.6 30.8 L 178.2 27.7 L 175.6 24.7 L 172.8 21.9 L 169.8 19.3 L 166.7 16.9 L 163.5 14.7 L 160.1 12.7 L 156.6 10.9 L 153.0 9.4 L 149.3 8.1 L 145.5 7.0 L 141.7 6.1 L 137.8 5.5 L 133.9 5.1 L 130.0 5.0 L 126.1 5.1 L 122.2 5.5 L 118.3 6.1 L 114.5 7.0 L 110.7 8.1 L 107.0 9.4 L 103.4 10.9 L 99.9 12.7 L 96.5 14.7 L 93.3 16.9 L 90.2 19.3 L 87.2 21.9 L 84.4 24.7 L 81.8 27.7 L 79.4 30.8 L 77.2 34.0 L 75.2 37.4 L 73.4 40.9 L 71.9 44.5 L 70.6 48.2 L 69.5 52.0 L 68.6 55.8 L 68.0 59.7 L 67.6 63.6 L 67.5 67.5 L 67.6 71.4 L 68.0 75.3 L 68.6 79.2 L 69.5 83.0 L 70.6 86.8 L 71.9 90.5 L 73.4 94.1 L 75.2 97.6 L 77.2 101.0 L 79.4 104.2 L 81.8 107.3 L 84.4 110.3 L 87.2 113.1 L 90.2 115.7 L 93.3 118.1 L 96.5 120.3 L 99.9 122.3 L 103.4 124.1 L 107.0 125.6 L 110.7 126.9 L 114.5 128.0 L 118.3 128.9 L 122.2 129.5 L 126.1 129.9 L 130.0 130.0 L 133.9 129.9 L 137.8 129.5 L 141.7 128.9 L 145.5 128.0 L 149.3 126.9 L 153.0 125.6 L 156.6 124.1 L 160.1 122.3 L 163.5 120.3 L 166.7 118.1 L 169.8 115.7 L 172.8 113.1 L 175.6 110.3 L 178.2 107.3 L 180.6 104.2 L 182.8 101.0 L 184.8 97.6 L 186.6 94.1 L 188.1 90.5 L 189.4 86.8 L 190.5 83.0 L 191.4 79.2 L 192.0 75.3 L 192.4 71.4 Z" stroke="red" stroke-width="2" fill="none"/>
    <path id="path-9-k=1" d="M 192.5 192.5 L 192.4 188.6 L 192.0 184.7 L 191.4 180.8 L 190.5 177.0 L 189.4 173.2 L 188.1 169.5 L 186.6 165.9 L 184.8 162.4 L 182.8 159.0 L 180.6 155.8 L 178.2 152.7 L 175.6 149.7 L 172.8 146.9 L 169.8 144.3 L 166.7 141.9 L 163.5 139.7 L 160.1 137.7 L 156.6 135.9 L 153.0 134.4 L 149.3 133.1 L 145.5 132.0 L 141.7 131.1 L 137.8 130.5 L 133.9 130.1 L 130.0 130.0 L 126.1 130.1 L 122.2 130.5 L 118.3 131.1 L 114.5 132.0 L 110.7 133.1 L 107.0 134.4 L 103.4 135.9 L 99.9 137.7 L 96.5 139.7 L 93.3 141.9 L 90.2 144.3 L 87.2 146.9 L 84.4 149.7 L 81.8 152.7 L 79.4 155.8 L 77.2 159.0 L 75.2 162.4 L 73.4 165.9 L 71.9 169.5 L 70.6 173.2 L 69.5 177.0 L 68.6 180.8 L 68.0 184.7 L 67.6 188.6 L 67.5 192.5 L 67.6 196.4 L 68.0 200.3 L 68.6 204.2 L 69.5 208.0 L 70.6 211.8 L 71.9 215.5 L 73.4 219.1 L 75.2 222.6 L 77.2 226.0 L 79.4 229.2 L 81.8 232.3 L 84.4 235.3 L 87.2 238.1 L 90.2 240.7 L 93.3 243.1 L 96.5 245.3 L 99.9 247.3 L 103.4 249.1 L 107.0 250.6 L 110.7 251.9 L 114.5 253.0 L 118.3 253.9 L 122.2 254.5 L 126.1 254.9 L 130.0 255.0 L 133.9 254.9 L 137.8 254.5 L 141.7 253.9 L 145.5 253.0 L 149.3 251.9 L 153.0 250.6 L 156.6 249.1 L 160.1 247.3 L 163.5 245.3 L 166.7 243.1 L 169.8 240.7 L 172.8 238.1 L 175.6 235.3 L 178.2 232.3 L 180.6 229.2 L 182.8 226.0 L 184.8 222.6 L 186.6 219.1 L 188.1 215.5 L 189.4 211.8 L 190.5 208.0 L 191.4 204.2 L 192.0 200.3 L 192.4 196.4 Z" stroke="red" stroke-width="2" fill="none"/>
    <path id="path-10-k=2" d="M 161.2 98.8 L 161.2 96.8 L 161.0 94.8 L 160.7 92.9 L 160.3 91.0 L 159.7 89.1 L 159.1 87.2 L 158.3 85.4 L 157.4 83.7 L 156.4 82.0 L 155.3 80.4 L 154.1 78.8 L 152.8 77.4 L 151.4 76.0 L 149.9 74.7 L 148.4 73.5 L 146.7 72.4 L 145.1 71.4 L 143.3 70.5 L 141.5 69.7 L 139.7 69.0 L 137.8 68.5 L 135.9 68.1 L 133.9 67.7 L 132.0 67.6 L 130.0 67.5 L 128.0 67.6 L 126.1 67.7 L 124.1 68.1 L 122.2 68.5 L 120.3 69.0 L 118.5 69.7 L 116.7 70.5 L 114.9 71.4 L 113.3 72.4 L 111.6 73.5 L 110.1 74.7 L 108.6 76.0 L 107.2 77.4 L 105.9 78.8 L 104.7 80.4 L 103.6 82.0 L 102.6 83.7 L 101.7 85.4 L 100.9 87.2 L 100.3 89.1 L 99.7 91.0 L 99.3 92.9 L 99.0 94.8 L 98.8 96.8 L 98.8 98.8 L 98.8 100.7 L 99.0 102.7 L 99.3 104.6 L 99.7 106.5 L 100.3 108.4 L 100.9 110.3 L 101.7 112.1 L 102.6 113.8 L 103.6 115.5 L 104.7 117.1 L 105.9 118.7 L 107.2 120.1 L 108.6 121.5 L 110.1 122.8 L 111.6 124.0 L 113.3 125.1 L 114.9 126.1 L 116.7 127.0 L 118.5 127.8 L 120.3 128.5 L 122.2 129.0 L 124.1 129.4 L 126.1 129.8 L 128.0 129.9 L 130.0 130.0 L 132.0 129.9 L 133.9 129.8 L 135.9 129.4 L 137.8 129.0 L 139.7 128.5 L 141.5 127.8 L 143.3 127.0 L 145.1 126.1 L 146.7 125.1 L 148.4 124.0 L 149.9 122.8 L 151.4 121.5 L 152.8 120.1 L 154.1 118.7 L 155.3 117.1 L 156.4 115.5 L 157.4 113.8 L 158.3 112.1 L 159.1 110.3 L 159.7 108.4 L 160.3 106.5 L 160.7 104.6 L 161.0 102.7 L 161.2 100.7 Z" stroke="red" stroke-width="2" fill="none"/>
    <path id="path-11-k=2" d="M 161.2 161.2 L 161.2 159.3 L 161.0 157.3 L 160.7 155.4 L 160.3 153.5 L 159.7 151.6 L 159.1 149.7 L 158.3 147.9 L 157.4 146.2 L 156.4 144.5 L 155.3 142.9 L 154.1 141.3 L 152.8 139.9 L 151.4 138.5 L 149.9 137.2 L 148.4 136.0 L 146.7 134.9 L 145.1 133.9 L 143.3 133.0 L 141.5 132.2 L 139.7 131.5 L 137.8 131.0 L 135.9 130.6 L 133.9 130.2 L 132.0 130.1 L 130.0 130.0 L 128.0 130.1 L 126.1 130.2 L 124.1 130.6 L 122.2 131.0 L 120.3 131.5 L 118.5 132.2 L 116.7 133.0 L 114.9 133.9 L 113.3 134.9 L 111.6 136.0 L 110.1 137.2 L 108.6 138.5 L 107.2 139.9 L 105.9 141.3 L 104.7 142.9 L 103.6 144.5 L 102.6 146.2 L 101.7 147.9 L 100.9 149.7 L 100.3 151.6 L 99.7 153.5 L 99.3 155.4 L 99.0 157.3 L 98.8 159.3 L 98.8 161.3 L 98.8 163.2 L 99.0 165.2 L 99.3 167.1 L 99.7 169.0 L 100.3 170.9 L 100.9 172.8 L 101.7 174.6 L 102.6 176.3 L 103.6 178.0 L 104.7 179.6 L 105.9 181.2 L 107.2 182.6 L 108.6 184.0 L 110.1 185.3 L 111.6 186.5 L 113.3 187.6 L 114.9 188.6 L 116.7 189.5 L 118.5 190.3 L 120.3 191.0 L 122.2 191.5 L 124.1 191.9 L 126.1 192.3 L 128.0 192.4 L 130.0 192.5 L 132.0 192.4 L 133.9 192.3 L 135.9 191.9 L 137.8 191.5 L 139.7 191.0 L 141.5 190.3 L 143.3 189.5 L 145.1 188.6 L 146.7 187.6 L 148.4 186.5 L 149.9 185.3 L 151.4 184.0 L 152.8 182.6 L 154.1 181.2 L 155.3 179.6 L 156.4 178.0 L 157.4 176.3 L 158.3 174.6 L 159.1 172.8 L 159.7 170.9 L 160.3 169.0 L 160.7 167.1 L 161.0 165.2 L 161.2 163.2 Z" stroke="red" stroke-width="2" fill="none"/>
    <path id="path-12-k=3" d="M 150.8 109.2 L 150.8 107.9 L 150.7 106.6 L 150.5 105.3 L 150.2 104.0 L 149.8 102.7 L 149.4 101.5 L 148.9 100.3 L 148.3 99.1 L 147.6 98.0 L 146.9 96.9 L 146.1 95.9 L 145.2 94.9 L 144.3 94.0 L 143.3 93.1 L 142.2 92.3 L 141.2 91.6 L 140.0 90.9 L 138.9 90.3 L 137.7 89.8 L 136.4 89.4 L 135.2 89.0 L 133.9 88.7 L 132.6 88.5 L 131.3 88.4 L 130.0 88.3 L 128.7 88.4 L 127.4 88.5 L 126.1 88.7 L 124.8 89.0 L 123.6 89.4 L 122.3 89.8 L 121.1 90.3 L 120.0 90.9 L 118.8 91.6 L 117.8 92.3 L 116.7 93.1 L 115.7 94.0 L 114.8 94.9 L 113.9 95.9 L 113.1 96.9 L 112.4 98.0 L 111.7 99.1 L 111.1 100.3 L 110.6 101.5 L 110.2 102.7 L 109.8 104.0 L 109.5 105.3 L 109.3 106.6 L 109.2 107.9 L 109.2 109.2 L 109.2 110.5 L 109.3 111.8 L 109.5 113.1 L 109.8 114.3 L 110.2 115.6 L 110.6 116.8 L 111.1 118.0 L 111.7 119.2 L 112.4 120.3 L 113.1 121.4 L 113.9 122.4 L 114.8 123.4 L 115.7 124.4 L 116.7 125.2 L 117.8 126.0 L 118.8 126.8 L 120.0 127.4 L 121.1 128.0 L 122.3 128.5 L 123.6 129.0 L 124.8 129.3 L 126.1 129.6 L 127.4 129.8 L 128.7 130.0 L 130.0 130.0 L 131.3 130.0 L 132.6 129.8 L 133.9 129.6 L 135.2 129.3 L 136.4 129.0 L 137.7 128.5 L 138.9 128.0 L 140.0 127.4 L 141.2 126.8 L 142.2 126.0 L 143.3 125.2 L 144.3 124.4 L 145.2 123.4 L 146.1 122.4 L 146.9 121.4 L 147.6 120.3 L 148.3 119.2 L 148.9 118.0 L 149.4 116.8 L 149.8 115.6 L 150.2 114.3 L 150.5 113.1 L 150.7 111.8 L 150.8 110.5 Z" stroke="red" stroke-width="2" fill="none"/>
    <path id="path-13-k=3" d="M 150.8 150.8 L 150.8 149.5 L 150.7 148.2 L 150.5 146.9 L 150.2 145.7 L 149.8 144.4 L 149.4 143.2 L 148.9 142.0 L 148.3 140.8 L 147.6 139.7 L 146.9 138.6 L 146.1 137.6 L 145.2 136.6 L 144.3 135.6 L 143.3 134.8 L 142.2 134.0 L 141.2 133.2 L 140.0 132.6 L 138.9 132.0 L 137.7 131.5 L 136.4 131.0 L 135.2 130.7 L 133.9 130.4 L 132.6 130.2 L 131.3 130.0 L 130.0 130.0 L 128.7 130.0 L 127.4 130.2 L 126.1 130.4 L 124.8 130.7 L 123.6 131.0 L 122.3 131.5 L 121.1 132.0 L 120.0 132.6 L 118.8 133.2 L 117.8 134.0 L 116.7 134.8 L 115.7 135.6 L 114.8 136.6 L 113.9 137.6 L 113.1 138.6 L 112.4 139.7 L 111.7 140.8 L 111.1 142.0 L 110.6 143.2 L 110.2 144.4 L 109.8 145.7 L 109.5 146.9 L 109.3 148.2 L 109.2 149.5 L 109.2 150.8 L 109.2 152.1 L 109.3 153.4 L 109.5 154.7 L 109.8 156.0 L 110.2 157.3 L 110.6 158.5 L 111.1 159.7 L 111.7 160.9 L 112.4 162.0 L 113.1 163.1 L 113.9 164.1 L 114.8 165.1 L 115.7 166.0 L 116.7 166.9 L 117.8 167.7 L 118.8 168.4 L 120.0 169.1 L 121.1 169.7 L 122.3 170.2 L 123.6 170.6 L 124.8 171.0 L 126.1 171.3 L 127.4 171.5 L 128.7 171.6 L 130.0 171.7 L 131.3 171.6 L 132.6 171.5 L 133.9 171.3 L 135.2 171.0 L 136.4 170.6 L 137.7 170.2 L 138.9 169.7 L 140.0 169.1 L 141.2 168.4 L 142.2 167.7 L 143.3 166.9 L 144.3 166.0 L 145.2 165.1 L 146.1 164.1 L 146.9 163.1 L 147.6 162.0 L 148.3 160.9 L 148.9 159.7 L 149.4 158.5 L 149.8 157.3 L 150.2 156.0 L 150.5 154.7 L 150.7 153.4 L 150.8 152.1 Z" stroke="red" stroke-width="2" fill="none"/>
    <path id="path-14-k=4" d="M 145.6 114.4 L 145.6 113.4 L 145.5 112.4 L 145.3 111.4 L 145.1 110.5 L 144.9 109.5 L 144.5 108.6 L 144.1 107.7 L 143.7 106.8 L 143.2 106.0 L 142.6 105.2 L 142.0 104.4 L 141.4 103.7 L 140.7 103.0 L 140.0 102.3 L 139.2 101.7 L 138.4 101.2 L 137.5 100.7 L 136.7 100.2 L 135.8 99.8 L 134.8 99.5 L 133.9 99.2 L 132.9 99.0 L 132.0 98.9 L 131.0 98.8 L 130.0 98.8 L 129.0 98.8 L 128.0 98.9 L 127.1 99.0 L 126.1 99.2 L 125.2 99.5 L 124.2 99.8 L 123.3 100.2 L 122.5 100.7 L 121.6 101.2 L 120.8 101.7 L 120.0 102.3 L 119.3 103.0 L 118.6 103.7 L 118.0 104.4 L 117.4 105.2 L 116.8 106.0 L 116.3 106.8 L 115.9 107.7 L 115.5 108.6 L 115.1 109.5 L 114.9 110.5 L 114.7 111.4 L 114.5 112.4 L 114.4 113.4 L 114.4 114.4 L 114.4 115.4 L 114.5 116.3 L 114.7 117.3 L 114.9 118.3 L 115.1 119.2 L 115.5 120.1 L 115.9 121.0 L 116.3 121.9 L 116.8 122.7 L 117.4 123.6 L 118.0 124.3 L 118.6 125.1 L 119.3 125.8 L 120.0 126.4 L 120.8 127.0 L 121.6 127.6 L 122.5 128.1 L 123.3 128.5 L 124.2 128.9 L 125.2 129.2 L 126.1 129.5 L 127.1 129.7 L 128.0 129.9 L 129.0 130.0 L 130.0 130.0 L 131.0 130.0 L 132.0 129.9 L 132.9 129.7 L 133.9 129.5 L 134.8 129.2 L 135.8 128.9 L 136.7 128.5 L 137.5 128.1 L 138.4 127.6 L 139.2 127.0 L 140.0 126.4 L 140.7 125.8 L 141.4 125.1 L 142.0 124.3 L 142.6 123.6 L 143.2 122.7 L 143.7 121.9 L 144.1 121.0 L 144.5 120.1 L 144.9 119.2 L 145.1 118.3 L 145.3 117.3 L 145.5 116.3 L 145.6 115.4 Z" stroke="red" stroke-width="2" fill="none"/>
    <path id="path-15-k=4" d="M 145.6 145.6 L 145.6 144.6 L 145.5 143.7 L 145.3 142.7 L 145.1 141.7 L 144.9 140.8 L 144.5 139.9 L 144.1 139.0 L 143.7 138.1 L 143.2 137.3 L 142.6 136.4 L 142.0 135.7 L 141.4 134.9 L 140.7 134.2 L 140.0 133.6 L 139.2 133.0 L 138.4 132.4 L 137.5 131.9 L 136.7 131.5 L 135.8 131.1 L 134.8 130.8 L 133.9 130.5 L 132.9 130.3 L 132.0 130.1 L 131.0 130.0 L 130.0 130.0 L 129.0 130.0 L 128.0 130.1 L 127.1 130.3 L 126.1 130.5 L 125.2 130.8 L 124.2 131.1 L 123.3 131.5 L 122.5 131.9 L 121.6 132.4 L 120.8 133.0 L 120.0 133.6 L 119.3 134.2 L 118.6 134.9 L 118.0 135.7 L 117.4 136.4 L 116.8 137.3 L 116.3 138.1 L 115.9 139.0 L 115.5 139.9 L 115.1 140.8 L 114.9 141.7 L 114.7 142.7 L 114.5 143.7 L 114.4 144.6 L 114.4 145.6 L 114.4 146.6 L 114.5 147.6 L 114.7 148.6 L 114.9 149.5 L 115.1 150.5 L 115.5 151.4 L 115.9 152.3 L 116.3 153.2 L 116.8 154.0 L 117.4 154.8 L 118.0 155.6 L 118.6 156.3 L 119.3 157.0 L 120.0 157.7 L 120.8 158.3 L 121.6 158.8 L 122.5 159.3 L 123.3 159.8 L 124.2 160.2 L 125.2 160.5 L 126.1 160.8 L 127.1 161.0 L 128.0 161.1 L 129.0 161.2 L 130.0 161.2 L 131.0 161.2 L 132.0 161.1 L 132.9 161.0 L 133.9 160.8 L 134.8 160.5 L 135.8 160.2 L 136.7 159.8 L 137.5 159.3 L 138.4 158.8 L 139.2 158.3 L 140.0 157.7 L 140.7 157.0 L 141.4 156.3 L 142.0 155.6 L 142.6 154.8 L 143.2 154.0 L 143.7 153.2 L 144.1 152.3 L 144.5 151.4 L 144.9 150.5 L 145.1 149.5 L 145.3 148.6 L 145.5 147.6 L 145.6 146.6 Z" stroke="red" stroke-width="2" fill="none"/>
  </g>
</svg>
